<svg width="172" height="80" viewBox="0 0 172 80" fill="none" xmlns="http://www.w3.org/2000/svg">
<path d="M27.3022 31.851V31.5271C28.2806 31.4623 28.9329 31.2841 29.259 30.9926C29.5956 30.7011 29.7639 30.1667 29.7639 29.3893V10.1653C29.7639 9.38792 29.5956 8.85887 29.259 8.57815C28.9329 8.28663 28.2806 8.10848 27.3022 8.0437V7.7036H44.4394L45.623 13.8741H45.3074C44.5289 12.4273 43.7136 11.2936 42.8614 10.473C42.0093 9.65245 41.0678 9.07481 40.0368 8.7401C39.0058 8.4054 37.7802 8.23804 36.36 8.23804H35.0661V19.3157H37.2279C37.9012 19.3157 38.4903 19.2132 38.9953 19.008C39.5108 18.8029 39.9579 18.4844 40.3366 18.0525C40.7153 17.6098 41.0362 17.1185 41.2992 16.5787C41.5727 16.028 41.841 15.3478 42.104 14.5381H42.4354V24.8222H42.104C41.6095 23.1378 40.9994 21.9016 40.2735 21.1134C39.5476 20.3144 38.5324 19.915 37.2279 19.915H35.0661V29.5998C35.0661 30.1505 35.2239 30.5769 35.5395 30.8793C35.8551 31.1708 36.2969 31.3165 36.865 31.3165H37.512C39.3214 31.3165 40.9468 30.8577 42.388 29.9399C43.8293 29.0114 45.2337 27.4728 46.6013 25.3242H46.9169L45.0233 31.851H27.3022Z" fill="#245658"/>
<path d="M66.394 31.851V31.5271C67.1199 31.4623 67.6038 31.3057 67.8458 31.0574C68.0877 30.8091 68.2087 30.3232 68.2087 29.5998V21.9718C68.2087 20.8057 67.951 19.9419 67.4355 19.3805C66.92 18.8083 66.1889 18.5221 65.242 18.5221C64.5372 18.5221 63.8166 18.7219 63.0802 19.1214C63.1854 19.7908 63.238 20.3846 63.238 20.9029V29.5998C63.238 30.3232 63.3642 30.8091 63.6167 31.0574C63.8797 31.3057 64.4004 31.4623 65.1789 31.5271V31.851H56.7681V31.5271C57.494 31.4623 57.9779 31.3057 58.2199 31.0574C58.4619 30.8091 58.5828 30.3232 58.5828 29.5998V21.9718C58.5828 20.8057 58.3198 19.9419 57.7938 19.3805C57.2784 18.8083 56.5472 18.5221 55.6004 18.5221C54.9481 18.5221 54.2801 18.6949 53.5963 19.0404V29.5998C53.5963 30.3232 53.7173 30.8091 53.9593 31.0574C54.2012 31.3057 54.6852 31.4623 55.411 31.5271V31.851H47.016V31.5271C47.7945 31.4623 48.31 31.3057 48.5625 31.0574C48.8255 30.8091 48.957 30.3232 48.957 29.5998V22.4252C48.957 20.3954 48.3941 19.116 47.2685 18.5869V18.3926C48.9728 17.9607 51.061 17.0268 53.5332 15.5908H53.8015L53.5332 18.6517C54.6063 17.626 55.5531 16.8864 56.3736 16.4329C57.1942 15.9687 58.1147 15.7365 59.1351 15.7365C61.176 15.7365 62.4542 16.7298 62.9697 18.7165C64.0848 17.68 65.0685 16.9242 65.9206 16.4491C66.7832 15.9741 67.73 15.7365 68.761 15.7365C70.0865 15.7365 71.1017 16.1738 71.8066 17.0484C72.5114 17.9229 72.8638 19.2078 72.8638 20.9029V29.5998C72.8638 30.3232 72.9901 30.8091 73.2426 31.0574C73.5056 31.3057 74.0263 31.4623 74.8048 31.5271V31.851H66.394Z" fill="#245658"/>
<path d="M82.9044 32.1749C81.5158 32.1749 80.2428 31.8672 79.0856 31.2518C77.9389 30.6255 77.0184 29.7186 76.3241 28.5309C75.6298 27.3325 75.2826 25.9612 75.2826 24.4173C75.2826 21.934 76.0453 19.8448 77.5707 18.1496C79.0961 16.4437 81.0055 15.5908 83.2989 15.5908C85.3188 15.5908 86.9283 16.1306 88.1276 17.2103C89.3374 18.2792 89.9476 19.7422 89.9581 21.5993H80.0009C80.0324 23.8019 80.5847 25.5888 81.6578 26.96C82.7308 28.3204 84.0563 29.0006 85.6344 29.0006C87.549 29.0006 89.1638 28.0936 90.4789 26.2798L90.7313 26.4417C89.9949 28.2016 88.8956 29.5944 87.4333 30.6201C85.9605 31.6566 84.4509 32.1749 82.9044 32.1749ZM80.0009 21.0648H83.6618C84.2194 21.0648 84.5771 20.9785 84.7349 20.8057C84.9032 20.6329 84.9874 20.2659 84.9874 19.7044C84.9874 18.6247 84.8085 17.7718 84.4509 17.1455C84.1037 16.5085 83.5882 16.19 82.9044 16.19C82.1785 16.19 81.521 16.6111 80.9319 17.4532C80.3428 18.2846 80.0324 19.4885 80.0009 21.0648Z" fill="#245658"/>
<path d="M90.8304 31.851V31.5271C91.6089 31.4623 92.1244 31.3057 92.3769 31.0574C92.6399 30.8091 92.7714 30.3232 92.7714 29.5998V22.4252C92.7714 20.3954 92.2086 19.116 91.0829 18.5869V18.3926C92.7872 17.9607 94.8754 17.0268 97.3476 15.5908H97.6159L97.3476 19.672C97.8315 18.8622 98.1997 18.2792 98.4522 17.9229C99.5253 16.3682 100.677 15.5908 101.908 15.5908C102.666 15.5908 103.276 15.8283 103.739 16.3034C104.201 16.7676 104.433 17.3723 104.433 18.1173C104.433 18.8407 104.196 19.4453 103.723 19.9311C103.249 20.4062 102.666 20.6437 101.971 20.6437C101.435 20.6437 100.819 20.3414 100.125 19.7368C99.5673 19.3265 99.1834 19.1214 98.973 19.1214C98.4154 19.1214 97.8946 19.4939 97.4107 20.2389V29.5998C97.4107 30.334 97.5738 30.8253 97.8999 31.0736C98.2366 31.3111 98.9361 31.4623 99.9987 31.5271V31.851H90.8304Z" fill="#245658"/>
<path d="M115.057 32.1101C113.258 32.1101 112.312 31.1816 112.217 29.3245C111.344 30.2854 110.518 30.9926 109.739 31.4461C108.971 31.8888 108.182 32.1101 107.372 32.1101C106.405 32.1101 105.605 31.8078 104.974 31.2032C104.353 30.5985 104.043 29.8212 104.043 28.871C104.043 28.0289 104.358 27.3271 104.99 26.7656C105.621 26.2042 106.746 25.6751 108.367 25.1785L112.185 24.0286V21.4373C112.185 20.6168 111.996 19.9257 111.617 19.3643C111.239 18.8029 110.623 18.5221 109.771 18.5221C109.277 18.5221 108.703 18.6085 108.051 18.7813C107.409 18.9432 107.088 19.197 107.088 19.5425C107.088 19.6936 107.194 19.9797 107.404 20.4008C107.772 21.1026 107.956 21.6803 107.956 22.1337C107.956 22.598 107.793 22.9705 107.467 23.2512C107.151 23.5211 106.741 23.6561 106.236 23.6561C105.773 23.6561 105.389 23.5265 105.084 23.2674C104.779 22.9975 104.627 22.6304 104.627 22.1661C104.627 21.1188 105.437 19.861 107.057 18.3926C108.992 16.6219 110.823 15.7365 112.548 15.7365C113.811 15.7365 114.842 16.136 115.641 16.935C116.441 17.7232 116.84 18.7813 116.84 20.1093V28.6605C116.84 29.06 116.93 29.3785 117.109 29.616C117.298 29.8428 117.556 29.9561 117.882 29.9561C118.44 29.9561 118.923 29.6808 119.334 29.1302L119.618 29.3245C118.482 31.1816 116.961 32.1101 115.057 32.1101ZM108.666 27.4134C108.666 28.0613 108.835 28.5687 109.171 28.9358C109.519 29.2921 109.987 29.4703 110.576 29.4703C111.018 29.4703 111.554 29.2111 112.185 28.6929V24.5468L110.213 25.2756C109.182 25.6751 108.666 26.3877 108.666 27.4134Z" fill="#245658"/>
<path d="M119.165 31.851V31.5271C120.006 31.4623 120.558 31.3111 120.821 31.0736C121.095 30.8253 121.232 30.334 121.232 29.5998V13.2748C121.232 11.5797 121.1 10.3435 120.837 9.56607C120.574 8.78869 120.106 8.23265 119.433 7.89794V7.7036C121.695 7.23933 123.825 6.51053 125.824 5.51721H126.092C125.955 6.47814 125.887 9.06401 125.887 13.2748V29.5998C125.887 30.334 126.018 30.8253 126.281 31.0736C126.555 31.3111 127.112 31.4623 127.954 31.5271V31.851H119.165Z" fill="#245658"/>
<path d="M134.397 32.0453C132.714 32.0453 131.314 31.3381 130.199 29.9237C129.095 28.4985 128.542 26.744 128.542 24.6602C128.542 22.9435 128.926 21.4049 129.694 20.0445C130.462 18.6733 131.499 17.6152 132.803 16.8702C134.107 16.1144 135.554 15.7365 137.143 15.7365C137.816 15.7365 138.526 15.8013 139.273 15.9309V13.2748C139.273 11.6229 139.147 10.3974 138.894 9.59846C138.642 8.79949 138.21 8.23265 137.6 7.89794V7.7036C139.788 7.20694 141.877 6.47814 143.865 5.51721H144.117C143.991 6.40256 143.928 8.98843 143.928 13.2748V28.2394C143.928 29.1571 144.033 29.751 144.244 30.0209C144.454 30.2908 144.933 30.4258 145.68 30.4258V30.7497C143.523 31.0088 141.408 31.4839 139.336 32.1749H139.083L139.336 29.5674C137.863 31.2194 136.217 32.0453 134.397 32.0453ZM133.45 22.6358C133.45 24.7088 133.818 26.3553 134.555 27.5754C135.291 28.7847 136.248 29.3893 137.427 29.3893C138.079 29.3893 138.694 29.2705 139.273 29.033V19.2509C139.273 18.4952 139.031 17.8203 138.547 17.2265C138.074 16.6327 137.474 16.3358 136.748 16.3358C135.738 16.3358 134.944 16.9404 134.365 18.1496C133.755 19.3697 133.45 20.8651 133.45 22.6358Z" fill="#245658"/>
<path d="M0 70.72V70.3961C0.978367 70.3313 1.63061 70.1532 1.95673 69.8616C2.29338 69.5701 2.4617 69.0357 2.4617 68.2583V49.0343C2.4617 48.2569 2.29338 47.7279 1.95673 47.4472C1.63061 47.1556 0.978367 46.9775 0 46.9127V46.5726H17.1372L18.3207 52.7431H18.0051C17.2266 51.2963 16.4113 50.1626 15.5592 49.342C14.7071 48.5215 13.7655 47.9438 12.7345 47.6091C11.7036 47.2744 10.478 47.1071 9.05778 47.1071H7.76381V58.1847H9.92569C10.599 58.1847 11.1881 58.0822 11.6931 57.877C12.2085 57.6719 12.6556 57.3534 13.0344 56.9215C13.4131 56.4788 13.734 55.9876 13.997 55.4477C14.2705 54.8971 14.5387 54.2169 14.8017 53.4071H15.1331V63.6912H14.8017C14.3073 62.0069 13.6971 60.7706 12.9712 59.9824C12.2454 59.1835 11.2302 58.784 9.92569 58.784H7.76381V68.4688C7.76381 69.0195 7.92161 69.446 8.23722 69.7483C8.55282 70.0398 8.99466 70.1856 9.56274 70.1856H10.2097C12.0192 70.1856 13.6445 69.7267 15.0858 68.8089C16.527 67.8804 17.9315 66.3418 19.2991 64.1932H19.6147L17.7211 70.72H0Z" fill="#3C3C3C"/>
<path d="M30.9808 70.9791C29.1818 70.9791 28.235 70.0506 28.1403 68.1935C27.2672 69.1544 26.4414 69.8617 25.6629 70.3151C24.8949 70.7578 24.1059 70.9791 23.2959 70.9791C22.328 70.9791 21.5285 70.6768 20.8973 70.0722C20.2766 69.4676 19.9663 68.6902 19.9663 67.74C19.9663 66.8979 20.2819 66.1961 20.9131 65.6346C21.5443 65.0732 22.6699 64.5441 24.29 64.0475L28.1088 62.8976V60.3063C28.1088 59.4858 27.9194 58.7948 27.5407 58.2333C27.162 57.6719 26.5466 57.3912 25.6944 57.3912C25.2 57.3912 24.6266 57.4775 23.9744 57.6503C23.3327 57.8122 23.0118 58.066 23.0118 58.4115C23.0118 58.5626 23.117 58.8488 23.3274 59.2698C23.6956 59.9716 23.8797 60.5493 23.8797 61.0027C23.8797 61.467 23.7167 61.8395 23.3905 62.1202C23.0749 62.3902 22.6647 62.5251 22.1597 62.5251C21.6968 62.5251 21.3128 62.3956 21.0077 62.1364C20.7027 61.8665 20.5501 61.4994 20.5501 61.0351C20.5501 59.9878 21.3602 58.73 22.9803 57.2616C24.9159 55.4909 26.7464 54.6056 28.4717 54.6056C29.7341 54.6056 30.7651 55.005 31.5646 55.804C32.3642 56.5922 32.7639 57.6503 32.7639 58.9783V67.5295C32.7639 67.929 32.8533 68.2475 33.0322 68.485C33.2215 68.7118 33.4793 68.8251 33.8054 68.8251C34.363 68.8251 34.8469 68.5498 35.2572 67.9992L35.5412 68.1935C34.4051 70.0506 32.8849 70.9791 30.9808 70.9791ZM24.5898 66.2825C24.5898 66.9303 24.7581 67.4377 25.0948 67.8048C25.442 68.1611 25.9101 68.3393 26.4992 68.3393C26.9411 68.3393 27.4776 68.0802 28.1088 67.5619V63.4159L26.1363 64.1447C25.1053 64.5441 24.5898 65.2567 24.5898 66.2825Z" fill="#3C3C3C"/>
<path d="M46.8284 78.7853C45.1136 79.5951 43.2726 80 41.3054 80C39.3381 80 37.8075 79.7139 36.7134 79.1416C35.6298 78.5694 35.088 77.7542 35.088 76.6961C35.088 75.7352 35.4667 74.8498 36.2242 74.0401C36.9816 73.2411 38.1757 72.4907 39.8063 71.7889C37.313 71.7889 36.0664 71.0115 36.0664 69.4568C36.0664 67.8588 37.3919 66.5794 40.043 65.6184C38.7069 65.219 37.6339 64.5495 36.8238 63.6102C36.0138 62.6709 35.6088 61.5912 35.6088 60.3711C35.6088 59.2482 35.9454 58.2333 36.6187 57.3264C37.292 56.4086 38.1809 55.7014 39.2855 55.2048C40.3901 54.7081 41.5894 54.4598 42.8834 54.4598C43.6619 54.4598 44.6192 54.6271 45.7554 54.9618C47.0704 55.3397 48.054 55.5287 48.7062 55.5287C49.1691 55.5287 49.7477 55.3829 50.4421 55.0914C50.8734 54.8971 51.2521 54.7999 51.5782 54.7999C51.9885 54.7999 52.3357 54.9295 52.6197 55.1886C52.9143 55.4477 53.0616 55.7824 53.0616 56.1927C53.0616 56.7002 52.8985 57.0942 52.5724 57.375C52.2463 57.6449 51.7834 57.7799 51.1837 57.7799C50.6262 57.7799 49.7635 57.4721 48.5958 56.8567C49.4795 57.8284 49.9213 58.9135 49.9213 60.112C49.9213 61.7963 49.2007 63.1999 47.7594 64.3228C46.3287 65.4457 44.6297 66.0071 42.6625 66.0071C41.8945 66.0071 41.237 65.9316 40.69 65.7804C40.0588 66.1583 39.7431 66.547 39.7431 66.9465C39.7431 67.1624 39.8273 67.3352 39.9956 67.4647C40.1745 67.5835 40.3954 67.6429 40.6584 67.6429H46.6391C48.6799 67.6429 50.1843 68.0316 51.1522 68.8089C52.12 69.5755 52.6039 70.6228 52.6039 71.9509C52.6039 73.2033 52.0779 74.4504 51.0259 75.692C49.9739 76.9445 48.5747 77.9756 46.8284 78.7853ZM39.2382 74.4288C39.2382 75.7136 39.659 76.6853 40.5006 77.3439C41.3527 78.0133 42.6099 78.3481 44.272 78.3481C45.9132 78.3481 47.2124 77.9864 48.1697 77.263C49.1271 76.5504 49.6057 75.6164 49.6057 74.4612C49.6057 73.6622 49.2743 73.0144 48.6116 72.5177C47.9593 72.0318 46.9652 71.7889 45.6291 71.7889H40.7531C39.7431 72.3935 39.2382 73.2735 39.2382 74.4288ZM39.9167 59.6423C39.9167 61.4022 40.2008 62.8058 40.7689 63.8531C41.3369 64.8896 42.0733 65.4079 42.9781 65.4079C43.7671 65.4079 44.3983 65.003 44.8717 64.1932C45.3556 63.3727 45.5976 62.2552 45.5976 60.8408C45.5976 59.0917 45.2977 57.6935 44.6981 56.6462C44.109 55.5881 43.3831 55.059 42.5204 55.059C41.7314 55.059 41.1002 55.4693 40.6268 56.2899C40.1534 57.0996 39.9167 58.2171 39.9167 59.6423Z" fill="#3C3C3C"/>
<path d="M52.4979 70.72V70.3961C53.3395 70.3313 53.8918 70.1802 54.1548 69.9426C54.4283 69.6943 54.5651 69.203 54.5651 68.4688V52.1438C54.5651 50.4487 54.4336 49.2125 54.1706 48.4351C53.9076 47.6577 53.4394 47.1017 52.7662 46.767V46.5726C55.028 46.1083 57.1583 45.3796 59.1571 44.3862H59.4254C59.2886 45.3472 59.2202 47.933 59.2202 52.1438V68.4688C59.2202 69.203 59.3517 69.6943 59.6147 69.9426C59.8882 70.1802 60.4458 70.3313 61.2874 70.3961V70.72H52.4979Z" fill="#3C3C3C"/>
<path d="M69.4659 71.0439C68.0773 71.0439 66.8044 70.7362 65.6471 70.1208C64.5005 69.4946 63.5799 68.5876 62.8856 67.3999C62.1913 66.2015 61.8441 64.8303 61.8441 63.2863C61.8441 60.803 62.6068 58.7138 64.1323 57.0187C65.6577 55.3128 67.5671 54.4598 69.8604 54.4598C71.8803 54.4598 73.4899 54.9996 74.6891 56.0793C75.8989 57.1482 76.5091 58.6112 76.5196 60.4683H66.5624C66.5939 62.6709 67.1463 64.4578 68.2193 65.829C69.2923 67.1894 70.6179 67.8696 72.1959 67.8696C74.1105 67.8696 75.7254 66.9627 77.0404 65.1488L77.2929 65.3107C76.5565 67.0706 75.4571 68.4634 73.9948 69.4892C72.522 70.5257 71.0124 71.0439 69.4659 71.0439ZM66.5624 59.9338H70.2234C70.7809 59.9338 71.1386 59.8475 71.2964 59.6747C71.4647 59.502 71.5489 59.1349 71.5489 58.5734C71.5489 57.4937 71.3701 56.6408 71.0124 56.0146C70.6652 55.3775 70.1497 55.059 69.4659 55.059C68.74 55.059 68.0825 55.4801 67.4934 56.3223C66.9043 57.1536 66.5939 58.3575 66.5624 59.9338Z" fill="#3C3C3C"/>
<path d="M82.4776 70.72V70.3961C84.8446 70.1046 86.0597 68.62 86.1228 65.9424L86.5173 51.0102C86.5278 49.6821 86.2332 48.705 85.6336 48.0788C85.034 47.4526 84.1134 47.0639 82.8721 46.9127V46.5726H92.3086C92.8872 48.2785 93.2712 49.3852 93.4605 49.8927L98.7942 63.6264L103.907 50.5891C104.675 48.6456 105.075 47.3068 105.106 46.5726H113.28V46.9127C112.291 46.9775 111.629 47.1556 111.292 47.4472C110.966 47.7279 110.808 48.2569 110.819 49.0343L111.213 68.2583C111.245 69.0789 111.408 69.6241 111.702 69.894C111.997 70.164 112.649 70.3313 113.659 70.3961V70.72H103.449V70.3961C104.438 70.3313 105.101 70.1532 105.438 69.8616C105.774 69.5701 105.932 69.0357 105.911 68.2583L105.517 48.8562L96.8217 70.72H95.9222L87.3221 48.8238L86.9118 65.9424C86.9013 67.3568 87.2326 68.4203 87.9059 69.1329C88.5897 69.8455 89.626 70.2665 91.0146 70.3961V70.72H82.4776Z" fill="#3C3C3C"/>
<path d="M121.538 71.0439C120.149 71.0439 118.876 70.7362 117.719 70.1208C116.572 69.4946 115.652 68.5876 114.957 67.3999C114.263 66.2015 113.916 64.8303 113.916 63.2863C113.916 60.803 114.679 58.7138 116.204 57.0187C117.729 55.3128 119.639 54.4598 121.932 54.4598C123.952 54.4598 125.562 54.9996 126.761 56.0793C127.971 57.1482 128.581 58.6112 128.591 60.4683H118.634C118.666 62.6709 119.218 64.4578 120.291 65.829C121.364 67.1894 122.69 67.8696 124.268 67.8696C126.182 67.8696 127.797 66.9627 129.112 65.1488L129.365 65.3107C128.628 67.0706 127.529 68.4634 126.067 69.4892C124.594 70.5257 123.084 71.0439 121.538 71.0439ZM118.634 59.9338H122.295C122.853 59.9338 123.21 59.8475 123.368 59.6747C123.537 59.502 123.621 59.1349 123.621 58.5734C123.621 57.4937 123.442 56.6408 123.084 56.0146C122.737 55.3775 122.222 55.059 121.538 55.059C120.812 55.059 120.154 55.4801 119.565 56.3223C118.976 57.1536 118.666 58.3575 118.634 59.9338Z" fill="#3C3C3C"/>
<path d="M135.665 70.9144C133.982 70.9144 132.583 70.2072 131.468 68.7928C130.363 67.3676 129.811 65.613 129.811 63.5292C129.811 61.8125 130.195 60.2739 130.963 58.9135C131.731 57.5423 132.767 56.4842 134.072 55.7392C135.376 54.9834 136.823 54.6056 138.411 54.6056C139.084 54.6056 139.795 54.6703 140.541 54.7999V52.1438C140.541 50.4919 140.415 49.2665 140.163 48.4675C139.91 47.6685 139.479 47.1017 138.869 46.767V46.5726C141.057 46.076 143.145 45.3472 145.133 44.3862H145.386C145.26 45.2716 145.197 47.8575 145.197 52.1438V67.1084C145.197 68.0262 145.302 68.62 145.512 68.8899C145.723 69.1598 146.201 69.2948 146.948 69.2948V69.6187C144.792 69.8778 142.677 70.3529 140.605 71.0439H140.352L140.605 68.4364C139.132 70.0884 137.485 70.9144 135.665 70.9144ZM134.719 61.5048C134.719 63.5778 135.087 65.2244 135.823 66.4444C136.56 67.6537 137.517 68.2583 138.695 68.2583C139.347 68.2583 139.963 68.1395 140.541 67.902V58.12C140.541 57.3642 140.299 56.6894 139.816 56.0955C139.342 55.5017 138.742 55.2048 138.017 55.2048C137.007 55.2048 136.212 55.8094 135.634 57.0187C135.024 58.2387 134.719 59.7341 134.719 61.5048Z" fill="#3C3C3C"/>
<path d="M147.158 70.72V70.3961C147.999 70.3313 148.552 70.1802 148.815 69.9426C149.088 69.6943 149.225 69.203 149.225 68.4688V61.2943C149.225 59.2752 148.62 57.9958 147.41 57.4559V57.2616C149.241 56.8189 151.371 55.885 153.801 54.4598H154.069C153.943 55.3559 153.88 57.6341 153.88 61.2943V68.4688C153.88 69.203 154.012 69.6943 154.275 69.9426C154.548 70.1802 155.106 70.3313 155.947 70.3961V70.72H147.158ZM148.578 48.6942C148.578 47.9276 148.846 47.2744 149.383 46.7346C149.919 46.1839 150.556 45.9086 151.292 45.9086C152.05 45.9086 152.691 46.1785 153.217 46.7184C153.743 47.2582 154.006 47.9168 154.006 48.6942C154.006 49.45 153.738 50.0978 153.201 50.6377C152.675 51.1775 152.039 51.4474 151.292 51.4474C150.545 51.4474 149.903 51.1775 149.367 50.6377C148.841 50.0978 148.578 49.45 148.578 48.6942Z" fill="#3C3C3C"/>
<path d="M167.44 70.9791C165.641 70.9791 164.694 70.0506 164.599 68.1935C163.726 69.1544 162.9 69.8617 162.122 70.3151C161.354 70.7578 160.565 70.9791 159.755 70.9791C158.787 70.9791 157.987 70.6768 157.356 70.0722C156.735 69.4676 156.425 68.6902 156.425 67.74C156.425 66.8979 156.741 66.1961 157.372 65.6346C158.003 65.0732 159.129 64.5441 160.749 64.0475L164.568 62.8976V60.3063C164.568 59.4858 164.378 58.7948 163.999 58.2333C163.621 57.6719 163.005 57.3912 162.153 57.3912C161.659 57.3912 161.085 57.4775 160.433 57.6503C159.791 57.8122 159.471 58.066 159.471 58.4115C159.471 58.5626 159.576 58.8488 159.786 59.2698C160.154 59.9716 160.339 60.5493 160.339 61.0027C160.339 61.467 160.175 61.8395 159.849 62.1202C159.534 62.3902 159.123 62.5251 158.618 62.5251C158.156 62.5251 157.772 62.3956 157.467 62.1364C157.161 61.8665 157.009 61.4994 157.009 61.0351C157.009 59.9878 157.819 58.73 159.439 57.2616C161.375 55.4909 163.205 54.6056 164.931 54.6056C166.193 54.6056 167.224 55.005 168.023 55.804C168.823 56.5922 169.223 57.6503 169.223 58.9783V67.5295C169.223 67.929 169.312 68.2475 169.491 68.485C169.68 68.7118 169.938 68.8251 170.264 68.8251C170.822 68.8251 171.306 68.5498 171.716 67.9992L172 68.1935C170.864 70.0506 169.344 70.9791 167.44 70.9791ZM161.049 66.2825C161.049 66.9303 161.217 67.4377 161.554 67.8048C161.901 68.1611 162.369 68.3393 162.958 68.3393C163.4 68.3393 163.936 68.0802 164.568 67.5619V63.4159L162.595 64.1447C161.564 64.5441 161.049 65.2567 161.049 66.2825Z" fill="#3C3C3C"/>
<g clip-path="url(#clip0_5555_3735)">
<path d="M150.159 23.4313C150.268 22.0427 150.243 20.6229 150.507 19.2705C151.239 15.5345 153.16 12.4411 155.694 9.76219C159.78 5.44071 164.589 2.29546 170.114 0.347169C170.581 0.181357 171.079 0.108814 171.547 0C172.752 2.76181 171.487 6.65321 168.68 8.39942C166.893 9.50829 164.867 10.2026 163.075 11.3011C160.631 12.7986 158.227 14.3894 155.958 16.1511C153.524 18.0424 151.617 20.4571 150.562 23.5142C150.428 23.4883 150.288 23.4572 150.154 23.4313H150.159Z" fill="#245658"/>
<path d="M171.144 10.2234C172.274 12.8038 171.403 16.488 169.113 18.3119C167.968 19.2239 166.604 19.8457 165.3 20.5193C162.797 21.8147 160.208 22.9495 157.759 24.3485C155.495 25.6439 153.867 27.6181 153.095 30.2556C153.051 30.411 152.926 30.5406 152.757 30.8204C151.463 29.0068 151.458 27.1362 152.055 25.2138C152.871 22.6075 154.544 20.6022 156.475 18.8249C160.462 15.1511 164.977 12.3841 169.989 10.498C170.367 10.3581 170.775 10.3011 171.149 10.213L171.144 10.2234Z" fill="#245658"/>
<path d="M159.317 26.8408C158.889 28.2969 158.327 29.6752 158.118 31.1053C157.914 32.5303 158.073 34.0122 158.073 35.862C156.754 34.7946 155.579 33.8723 154.449 32.8981C154.285 32.7582 154.235 32.3437 154.29 32.0898C154.683 30.2918 157.436 27.4523 159.317 26.8408Z" fill="#245658"/>
</g>
<g clip-path="url(#clip1_5555_3735)">
<path d="M21.8412 23.4313C21.7317 22.0427 21.7566 20.6229 21.4928 19.2705C20.7611 15.5345 18.8398 12.4411 16.3062 9.76219C12.2197 5.44071 7.41144 2.29546 1.88642 0.347169C1.41853 0.181357 0.92078 0.108814 0.452896 0C-0.751659 2.76181 0.512627 6.65321 3.31994 8.39942C5.10686 9.50829 7.1327 10.2026 8.9246 11.3011C11.3686 12.7986 13.7727 14.3894 16.0424 16.1511C18.4764 18.0424 20.3828 20.4571 21.438 23.5142C21.5724 23.4883 21.7118 23.4572 21.8462 23.4313H21.8412Z" fill="#245658"/>
<path d="M0.856171 10.2234C-0.273722 12.8038 0.59734 16.488 2.88699 18.3119C4.03181 19.2239 5.39565 19.8457 6.69975 20.5193C9.20344 21.8147 11.7917 22.9495 14.2407 24.3485C16.5054 25.6439 18.1331 27.6181 18.9046 30.2556C18.9494 30.411 19.0738 30.5406 19.2431 30.8204C20.5372 29.0068 20.5422 27.1362 19.9449 25.2138C19.1286 22.6075 17.4561 20.6022 15.5249 18.8249C11.5379 15.1511 7.02329 12.3841 2.01095 10.498C1.63266 10.3581 1.22451 10.3011 0.851194 10.213L0.856171 10.2234Z" fill="#245658"/>
<path d="M12.6828 26.8408C13.1109 28.2969 13.6734 29.6752 13.8824 31.1053C14.0865 32.5303 13.9272 34.0122 13.9272 35.862C15.2462 34.7946 16.4209 33.8723 17.5508 32.8981C17.7151 32.7582 17.7649 32.3437 17.7101 32.0898C17.3169 30.2918 14.5643 27.4523 12.6828 26.8408Z" fill="#245658"/>
</g>
<defs>
<clipPath id="clip0_5555_3735">
<rect width="21.8413" height="35.8621" fill="white" transform="translate(150.159)"/>
</clipPath>
<clipPath id="clip1_5555_3735">
<rect width="21.8413" height="35.8621" fill="white" transform="matrix(-1 0 0 1 21.8413 0)"/>
</clipPath>
</defs>
</svg>
