<svg width="30" height="30" viewBox="0 0 30 30" fill="none" xmlns="http://www.w3.org/2000/svg">
<g filter="url(#filter0_d_5555_9087)">
<path d="M3.75 6.57495C3.75 5.02165 5.0092 3.76245 6.5625 3.76245H10.425C11.9783 3.76245 13.2375 5.02165 13.2375 6.57495V10.4375C13.2375 11.9908 11.9783 13.25 10.425 13.25H6.5625C5.0092 13.25 3.75 11.9908 3.75 10.4375V6.57495Z" fill="#09090B" shape-rendering="crispEdges"/>
<path d="M3.75 6.57495C3.75 5.02165 5.0092 3.76245 6.5625 3.76245H10.425C11.9783 3.76245 13.2375 5.02165 13.2375 6.57495V10.4375C13.2375 11.9908 11.9783 13.25 10.425 13.25H6.5625C5.0092 13.25 3.75 11.9908 3.75 10.4375V6.57495Z" fill="url(#paint0_radial_5555_9087)" shape-rendering="crispEdges"/>
<path d="M16.7625 6.57495C16.7625 5.02165 18.0217 3.76245 19.575 3.76245H23.4375C24.9908 3.76245 26.25 5.02165 26.25 6.57495V10.4375C26.25 11.9908 24.9908 13.25 23.4375 13.25H19.575C18.0217 13.25 16.7625 11.9908 16.7625 10.4375V6.57495Z" fill="#09090B" shape-rendering="crispEdges"/>
<path d="M16.7625 6.57495C16.7625 5.02165 18.0217 3.76245 19.575 3.76245H23.4375C24.9908 3.76245 26.25 5.02165 26.25 6.57495V10.4375C26.25 11.9908 24.9908 13.25 23.4375 13.25H19.575C18.0217 13.25 16.7625 11.9908 16.7625 10.4375V6.57495Z" fill="url(#paint1_radial_5555_9087)" shape-rendering="crispEdges"/>
<path d="M3.75 19.575C3.75 18.0217 5.0092 16.7625 6.5625 16.7625H10.425C11.9783 16.7625 13.2375 18.0217 13.2375 19.575V23.4375C13.2375 24.9907 11.9783 26.25 10.425 26.25H6.5625C5.0092 26.25 3.75 24.9908 3.75 23.4375V19.575Z" fill="#09090B" shape-rendering="crispEdges"/>
<path d="M3.75 19.575C3.75 18.0217 5.0092 16.7625 6.5625 16.7625H10.425C11.9783 16.7625 13.2375 18.0217 13.2375 19.575V23.4375C13.2375 24.9907 11.9783 26.25 10.425 26.25H6.5625C5.0092 26.25 3.75 24.9908 3.75 23.4375V19.575Z" fill="url(#paint2_radial_5555_9087)" shape-rendering="crispEdges"/>
<path d="M16.7625 19.575C16.7625 18.0217 18.0217 16.7625 19.575 16.7625H23.4375C24.9908 16.7625 26.25 18.0217 26.25 19.575V23.4375C26.25 24.9907 24.9908 26.25 23.4375 26.25H19.575C18.0217 26.25 16.7625 24.9908 16.7625 23.4375V19.575Z" fill="#09090B" shape-rendering="crispEdges"/>
<path d="M16.7625 19.575C16.7625 18.0217 18.0217 16.7625 19.575 16.7625H23.4375C24.9908 16.7625 26.25 18.0217 26.25 19.575V23.4375C26.25 24.9907 24.9908 26.25 23.4375 26.25H19.575C18.0217 26.25 16.7625 24.9908 16.7625 23.4375V19.575Z" fill="url(#paint3_radial_5555_9087)" shape-rendering="crispEdges"/>
<path d="M3.75 6.57495C3.75 5.02165 5.0092 3.76245 6.5625 3.76245H10.425C11.9783 3.76245 13.2375 5.02165 13.2375 6.57495V10.4375C13.2375 11.9908 11.9783 13.25 10.425 13.25H6.5625C5.0092 13.25 3.75 11.9908 3.75 10.4375V6.57495Z" stroke="url(#paint4_radial_5555_9087)" stroke-width="0.75" shape-rendering="crispEdges"/>
<path d="M16.7625 6.57495C16.7625 5.02165 18.0217 3.76245 19.575 3.76245H23.4375C24.9908 3.76245 26.25 5.02165 26.25 6.57495V10.4375C26.25 11.9908 24.9908 13.25 23.4375 13.25H19.575C18.0217 13.25 16.7625 11.9908 16.7625 10.4375V6.57495Z" stroke="url(#paint5_radial_5555_9087)" stroke-width="0.75" shape-rendering="crispEdges"/>
<path d="M3.75 19.575C3.75 18.0217 5.0092 16.7625 6.5625 16.7625H10.425C11.9783 16.7625 13.2375 18.0217 13.2375 19.575V23.4375C13.2375 24.9907 11.9783 26.25 10.425 26.25H6.5625C5.0092 26.25 3.75 24.9908 3.75 23.4375V19.575Z" stroke="url(#paint6_radial_5555_9087)" stroke-width="0.75" shape-rendering="crispEdges"/>
<path d="M16.7625 19.575C16.7625 18.0217 18.0217 16.7625 19.575 16.7625H23.4375C24.9908 16.7625 26.25 18.0217 26.25 19.575V23.4375C26.25 24.9907 24.9908 26.25 23.4375 26.25H19.575C18.0217 26.25 16.7625 24.9908 16.7625 23.4375V19.575Z" stroke="url(#paint7_radial_5555_9087)" stroke-width="0.75" shape-rendering="crispEdges"/>
</g>
<defs>
<filter id="filter0_d_5555_9087" x="2.375" y="2.38745" width="25.25" height="25.2375" filterUnits="userSpaceOnUse" color-interpolation-filters="sRGB">
<feFlood flood-opacity="0" result="BackgroundImageFix"/>
<feColorMatrix in="SourceAlpha" type="matrix" values="0 0 0 0 0 0 0 0 0 0 0 0 0 0 0 0 0 0 127 0" result="hardAlpha"/>
<feMorphology radius="1" operator="dilate" in="SourceAlpha" result="effect1_dropShadow_5555_9087"/>
<feOffset/>
<feComposite in2="hardAlpha" operator="out"/>
<feColorMatrix type="matrix" values="0 0 0 0 0.0705882 0 0 0 0 0.0705882 0 0 0 0 0.0705882 0 0 0 1 0"/>
<feBlend mode="normal" in2="BackgroundImageFix" result="effect1_dropShadow_5555_9087"/>
<feBlend mode="normal" in="SourceGraphic" in2="effect1_dropShadow_5555_9087" result="shape"/>
</filter>
<radialGradient id="paint0_radial_5555_9087" cx="0" cy="0" r="1" gradientUnits="userSpaceOnUse" gradientTransform="translate(15 3.76245) rotate(90) scale(22.4875 22.5)">
<stop stop-color="white" stop-opacity="0.3"/>
<stop offset="1" stop-color="white" stop-opacity="0"/>
</radialGradient>
<radialGradient id="paint1_radial_5555_9087" cx="0" cy="0" r="1" gradientUnits="userSpaceOnUse" gradientTransform="translate(15 3.76245) rotate(90) scale(22.4875 22.5)">
<stop stop-color="white" stop-opacity="0.3"/>
<stop offset="1" stop-color="white" stop-opacity="0"/>
</radialGradient>
<radialGradient id="paint2_radial_5555_9087" cx="0" cy="0" r="1" gradientUnits="userSpaceOnUse" gradientTransform="translate(15 3.76245) rotate(90) scale(22.4875 22.5)">
<stop stop-color="white" stop-opacity="0.3"/>
<stop offset="1" stop-color="white" stop-opacity="0"/>
</radialGradient>
<radialGradient id="paint3_radial_5555_9087" cx="0" cy="0" r="1" gradientUnits="userSpaceOnUse" gradientTransform="translate(15 3.76245) rotate(90) scale(22.4875 22.5)">
<stop stop-color="white" stop-opacity="0.3"/>
<stop offset="1" stop-color="white" stop-opacity="0"/>
</radialGradient>
<radialGradient id="paint4_radial_5555_9087" cx="0" cy="0" r="1" gradientUnits="userSpaceOnUse" gradientTransform="translate(15 5.16792) rotate(90) scale(21.082 11.25)">
<stop stop-color="white" stop-opacity="0.3"/>
<stop offset="1" stop-color="white" stop-opacity="0"/>
</radialGradient>
<radialGradient id="paint5_radial_5555_9087" cx="0" cy="0" r="1" gradientUnits="userSpaceOnUse" gradientTransform="translate(15 5.16792) rotate(90) scale(21.082 11.25)">
<stop stop-color="white" stop-opacity="0.3"/>
<stop offset="1" stop-color="white" stop-opacity="0"/>
</radialGradient>
<radialGradient id="paint6_radial_5555_9087" cx="0" cy="0" r="1" gradientUnits="userSpaceOnUse" gradientTransform="translate(15 5.16792) rotate(90) scale(21.082 11.25)">
<stop stop-color="white" stop-opacity="0.3"/>
<stop offset="1" stop-color="white" stop-opacity="0"/>
</radialGradient>
<radialGradient id="paint7_radial_5555_9087" cx="0" cy="0" r="1" gradientUnits="userSpaceOnUse" gradientTransform="translate(15 5.16792) rotate(90) scale(21.082 11.25)">
<stop stop-color="white" stop-opacity="0.3"/>
<stop offset="1" stop-color="white" stop-opacity="0"/>
</radialGradient>
</defs>
</svg>
