<svg width="86" height="40" viewBox="0 0 86 40" fill="none" xmlns="http://www.w3.org/2000/svg">
<path d="M13.6514 15.9254V15.7635C14.1406 15.7311 14.4667 15.642 14.6297 15.4963C14.7981 15.3505 14.8822 15.0833 14.8822 14.6946V5.08259C14.8822 4.6939 14.7981 4.42937 14.6297 4.28901C14.4667 4.14325 14.1406 4.05418 13.6514 4.02179V3.85174H22.22L22.8117 6.93697H22.6539C22.2647 6.21357 21.857 5.64673 21.431 5.23645C21.0049 4.82616 20.5341 4.53734 20.0186 4.36999C19.5032 4.20264 18.8904 4.11896 18.1803 4.11896H17.5333V9.6578H18.6142C18.9509 9.6578 19.2454 9.60651 19.4979 9.50394C19.7556 9.40137 19.9792 9.24212 20.1686 9.02618C20.3579 8.80484 20.5183 8.55921 20.6498 8.28929C20.7866 8.01396 20.9207 7.67386 21.0522 7.26897H21.2179V12.411H21.0522C20.805 11.5689 20.4999 10.9507 20.137 10.5566C19.774 10.1572 19.2665 9.95741 18.6142 9.95741H17.5333V14.7998C17.5333 15.0752 17.6122 15.2884 17.77 15.4396C17.9278 15.5853 18.1487 15.6582 18.4327 15.6582H18.7562C19.661 15.6582 20.4736 15.4288 21.1943 14.9699C21.9149 14.5056 22.6171 13.7363 23.3009 12.6621H23.4587L22.5119 15.9254H13.6514Z" fill="#245658"/>
<path d="M33.1972 15.9254V15.7635C33.5602 15.7311 33.8021 15.6528 33.9231 15.5286C34.0441 15.4045 34.1046 15.1615 34.1046 14.7998V10.9858C34.1046 10.4028 33.9757 9.97091 33.718 9.69019C33.4602 9.40407 33.0947 9.26101 32.6213 9.26101C32.2688 9.26101 31.9085 9.36088 31.5403 9.56063C31.5929 9.89533 31.6192 10.1922 31.6192 10.4514V14.7998C31.6192 15.1615 31.6823 15.4045 31.8086 15.5286C31.9401 15.6528 32.2005 15.7311 32.5897 15.7635V15.9254H28.3843V15.7635C28.7472 15.7311 28.9892 15.6528 29.1102 15.5286C29.2312 15.4045 29.2917 15.1615 29.2917 14.7998V10.9858C29.2917 10.4028 29.1602 9.97091 28.8972 9.69019C28.6394 9.40407 28.2738 9.26101 27.8004 9.26101C27.4743 9.26101 27.1403 9.34739 26.7984 9.52014V14.7998C26.7984 15.1615 26.8589 15.4045 26.9799 15.5286C27.1009 15.6528 27.3428 15.7311 27.7058 15.7635V15.9254H23.5083V15.7635C23.8975 15.7311 24.1552 15.6528 24.2815 15.5286C24.413 15.4045 24.4787 15.1615 24.4787 14.7998V11.2126C24.4787 10.1976 24.1973 9.55793 23.6345 9.2934V9.19623C24.4866 8.98029 25.5307 8.51332 26.7668 7.79532H26.901L26.7668 9.32579C27.3034 8.81294 27.7768 8.44314 28.1871 8.21641C28.5973 7.98427 29.0576 7.8682 29.5678 7.8682C30.5883 7.8682 31.2274 8.36486 31.4851 9.35818C32.0427 8.83993 32.5345 8.46204 32.9605 8.2245C33.3919 7.98697 33.8653 7.8682 34.3807 7.8682C35.0435 7.8682 35.5511 8.08684 35.9035 8.52412C36.2559 8.9614 36.4322 9.60381 36.4322 10.4514V14.7998C36.4322 15.1615 36.4953 15.4045 36.6215 15.5286C36.753 15.6528 37.0134 15.7311 37.4026 15.7635V15.9254H33.1972Z" fill="#245658"/>
<path d="M41.4524 16.0874C40.7581 16.0874 40.1217 15.9335 39.5431 15.6258C38.9697 15.3127 38.5095 14.8592 38.1623 14.2654C37.8151 13.6662 37.6416 12.9806 37.6416 12.2086C37.6416 10.9669 38.0229 9.92232 38.7856 9.07476C39.5483 8.2218 40.503 7.79532 41.6497 7.79532C42.6596 7.79532 43.4644 8.06525 44.0641 8.6051C44.669 9.13955 44.974 9.87104 44.9793 10.7996H40.0007C40.0165 11.9009 40.2926 12.7943 40.8291 13.4799C41.3657 14.1601 42.0284 14.5002 42.8174 14.5002C43.7747 14.5002 44.5822 14.0468 45.2397 13.1398L45.3659 13.2208C44.9977 14.1007 44.448 14.7971 43.7169 15.31C42.9805 15.8283 42.2257 16.0874 41.4524 16.0874ZM40.0007 10.5324H41.8312C42.1099 10.5324 42.2888 10.4892 42.3677 10.4028C42.4519 10.3164 42.4939 10.1329 42.4939 9.85214C42.4939 9.3123 42.4045 8.88582 42.2257 8.57271C42.0521 8.2542 41.7943 8.09494 41.4524 8.09494C41.0895 8.09494 40.7607 8.30548 40.4662 8.72656C40.1716 9.14224 40.0165 9.74417 40.0007 10.5324Z" fill="#245658"/>
<path d="M45.4155 15.9254V15.7635C45.8047 15.7311 46.0624 15.6528 46.1887 15.5286C46.3202 15.4045 46.3859 15.1615 46.3859 14.7998V11.2126C46.3859 10.1976 46.1045 9.55793 45.5417 9.2934V9.19623C46.3938 8.98029 47.4379 8.51332 48.674 7.79532H48.8082L48.674 9.83595C48.916 9.43106 49.1001 9.13954 49.2264 8.9614C49.7629 8.18401 50.3389 7.79532 50.9543 7.79532C51.333 7.79532 51.6381 7.91409 51.8695 8.15162C52.101 8.38376 52.2167 8.68607 52.2167 9.05857C52.2167 9.42027 52.0983 9.72258 51.8616 9.96551C51.6249 10.203 51.333 10.3218 50.9858 10.3218C50.7176 10.3218 50.4099 10.1707 50.0627 9.86834C49.7839 9.6632 49.5919 9.56063 49.4867 9.56063C49.2079 9.56063 48.9476 9.74687 48.7056 10.1194V14.7998C48.7056 15.1669 48.7871 15.4126 48.9502 15.5367C49.1185 15.6555 49.4683 15.7311 49.9996 15.7635V15.9254H45.4155Z" fill="#245658"/>
<path d="M57.5289 16.055C56.6294 16.055 56.156 15.5907 56.1087 14.6622C55.6721 15.1427 55.2592 15.4963 54.87 15.723C54.486 15.9443 54.0915 16.055 53.6864 16.055C53.2025 16.055 52.8028 15.9038 52.4872 15.6015C52.1768 15.2992 52.0216 14.9105 52.0216 14.4355C52.0216 14.0144 52.1794 13.6635 52.495 13.3827C52.8106 13.102 53.3735 12.8375 54.1835 12.5892L56.0929 12.0142V10.7186C56.0929 10.3083 55.9982 9.96281 55.8089 9.68209C55.6195 9.40137 55.3118 9.26101 54.8857 9.26101C54.6385 9.26101 54.3518 9.3042 54.0257 9.39057C53.7049 9.47155 53.5444 9.59842 53.5444 9.77117C53.5444 9.84675 53.597 9.98981 53.7022 10.2003C53.8863 10.5512 53.9784 10.8401 53.9784 11.0668C53.9784 11.2989 53.8968 11.4852 53.7338 11.6255C53.576 11.7605 53.3708 11.828 53.1184 11.828C52.8869 11.828 52.6949 11.7632 52.5424 11.6336C52.3899 11.4987 52.3136 11.3151 52.3136 11.083C52.3136 10.5593 52.7186 9.93042 53.5286 9.19623C54.4965 8.31088 55.4117 7.8682 56.2744 7.8682C56.9056 7.8682 57.4211 8.06795 57.8208 8.46743C58.2206 8.86152 58.4205 9.39057 58.4205 10.0546V14.3302C58.4205 14.5299 58.4652 14.6892 58.5546 14.8079C58.6493 14.9213 58.7782 14.978 58.9412 14.978C59.22 14.978 59.462 14.8403 59.6671 14.565L59.8091 14.6622C59.241 15.5907 58.481 16.055 57.5289 16.055ZM54.3334 13.7067C54.3334 14.0306 54.4176 14.2843 54.5859 14.4678C54.7595 14.646 54.9936 14.7351 55.2881 14.7351C55.509 14.7351 55.7773 14.6055 56.0929 14.3464V12.2734L55.1067 12.6378C54.5912 12.8375 54.3334 13.1938 54.3334 13.7067Z" fill="#245658"/>
<path d="M59.5825 15.9254V15.7635C60.0033 15.7311 60.2795 15.6555 60.411 15.5367C60.5477 15.4126 60.6161 15.1669 60.6161 14.7998V6.63735C60.6161 5.78979 60.5504 5.17166 60.4189 4.78297C60.2874 4.39428 60.0533 4.11626 59.7167 3.94891V3.85174C60.8476 3.6196 61.9127 3.2552 62.9121 2.75854H63.0463C62.9779 3.23901 62.9437 4.53194 62.9437 6.63735V14.7998C62.9437 15.1669 63.0094 15.4126 63.1409 15.5367C63.2777 15.6555 63.5565 15.7311 63.9773 15.7635V15.9254H59.5825Z" fill="#245658"/>
<path d="M67.1986 16.0226C66.357 16.0226 65.6574 15.669 65.0999 14.9618C64.5476 14.2492 64.2714 13.372 64.2714 12.33C64.2714 11.4717 64.4634 10.7024 64.8474 10.0222C65.2314 9.33659 65.7495 8.80754 66.4017 8.43504C67.054 8.05715 67.7772 7.8682 68.5715 7.8682C68.9081 7.8682 69.2632 7.90059 69.6367 7.96538V6.63735C69.6367 5.81138 69.5735 5.19866 69.4473 4.79917C69.3211 4.39968 69.1054 4.11626 68.8003 3.94891V3.85174C69.8944 3.60341 70.9385 3.23901 71.9327 2.75854H72.0589C71.9958 3.20122 71.9642 4.49416 71.9642 6.63735V14.1196C71.9642 14.5785 72.0168 14.8754 72.122 15.0104C72.2272 15.1454 72.4666 15.2128 72.84 15.2128V15.3748C71.7617 15.5044 70.7044 15.7419 69.6682 16.0874H69.542L69.6682 14.7837C68.9318 15.6096 68.1086 16.0226 67.1986 16.0226ZM66.7252 11.3178C66.7252 12.3543 66.9093 13.1776 67.2775 13.7876C67.6457 14.3923 68.1244 14.6946 68.7135 14.6946C69.0397 14.6946 69.3474 14.6352 69.6367 14.5164V9.62541C69.6367 9.24752 69.5157 8.91011 69.2737 8.61319C69.037 8.31628 68.7372 8.16782 68.3743 8.16782C67.8693 8.16782 67.4722 8.47013 67.1829 9.07476C66.8778 9.68479 66.7252 10.4325 66.7252 11.3178Z" fill="#245658"/>
<path d="M0 35.36V35.198C0.489183 35.1657 0.815306 35.0766 0.978367 34.9308C1.14669 34.7851 1.23085 34.5178 1.23085 34.1292V24.5172C1.23085 24.1285 1.14669 23.8639 0.978367 23.7236C0.815306 23.5778 0.489183 23.4888 0 23.4564V23.2863H8.5686L9.16035 26.3715H9.00255C8.61331 25.6481 8.20566 25.0813 7.77959 24.671C7.35353 24.2607 6.88276 23.9719 6.36727 23.8046C5.85179 23.6372 5.239 23.5535 4.52889 23.5535H3.88191V29.0924H4.96284C5.29949 29.0924 5.59405 29.0411 5.84653 28.9385C6.10427 28.8359 6.32782 28.6767 6.51718 28.4607C6.70655 28.2394 6.86698 27.9938 6.99848 27.7239C7.13524 27.4485 7.26937 27.1084 7.40087 26.7035H7.56656V31.8456H7.40087C7.15365 31.0034 6.84857 30.3853 6.48562 29.9912C6.12268 29.5917 5.61509 29.392 4.96284 29.392H3.88191V34.2344C3.88191 34.5097 3.96081 34.723 4.11861 34.8741C4.27641 35.0199 4.49733 35.0928 4.78137 35.0928H5.10486C6.00959 35.0928 6.82227 34.8633 7.54289 34.4045C8.26352 33.9402 8.96573 33.1709 9.64954 32.0966H9.80734L8.86053 35.36H0Z" fill="#3C3C3C"/>
<path d="M15.4904 35.4896C14.5909 35.4896 14.1175 35.0253 14.0702 34.0968C13.6336 34.5772 13.2207 34.9308 12.8314 35.1576C12.4475 35.3789 12.053 35.4896 11.6479 35.4896C11.164 35.4896 10.7642 35.3384 10.4486 35.0361C10.1383 34.7338 9.98313 34.3451 9.98313 33.87C9.98313 33.4489 10.1409 33.098 10.4565 32.8173C10.7721 32.5366 11.335 32.2721 12.145 32.0237L14.0544 31.4488V30.1532C14.0544 29.7429 13.9597 29.3974 13.7704 29.1167C13.581 28.8359 13.2733 28.6956 12.8472 28.6956C12.6 28.6956 12.3133 28.7388 11.9872 28.8251C11.6663 28.9061 11.5059 29.033 11.5059 29.2057C11.5059 29.2813 11.5585 29.4244 11.6637 29.6349C11.8478 29.9858 11.9399 30.2746 11.9399 30.5014C11.9399 30.7335 11.8583 30.9198 11.6953 31.0601C11.5375 31.1951 11.3323 31.2626 11.0798 31.2626C10.8484 31.2626 10.6564 31.1978 10.5039 31.0682C10.3513 30.9333 10.2751 30.7497 10.2751 30.5176C10.2751 29.9939 10.6801 29.365 11.4901 28.6308C12.458 27.7455 13.3732 27.3028 14.2359 27.3028C14.8671 27.3028 15.3826 27.5025 15.7823 27.902C16.1821 28.2961 16.382 28.8251 16.382 29.4892V33.7648C16.382 33.9645 16.4267 34.1238 16.5161 34.2425C16.6108 34.3559 16.7396 34.4126 16.9027 34.4126C17.1815 34.4126 17.4234 34.2749 17.6286 33.9996L17.7706 34.0968C17.2025 35.0253 16.4425 35.4896 15.4904 35.4896ZM12.2949 33.1412C12.2949 33.4651 12.3791 33.7189 12.5474 33.9024C12.721 34.0806 12.955 34.1696 13.2496 34.1696C13.4705 34.1696 13.7388 34.0401 14.0544 33.7809V31.7079L13.0681 32.0723C12.5527 32.2721 12.2949 32.6284 12.2949 33.1412Z" fill="#3C3C3C"/>
<path d="M23.4142 39.3927C22.5568 39.7976 21.6363 40 20.6527 40C19.6691 40 18.9037 39.8569 18.3567 39.5708C17.8149 39.2847 17.544 38.8771 17.544 38.3481C17.544 37.8676 17.7334 37.4249 18.1121 37.02C18.4908 36.6205 19.0878 36.2454 19.9031 35.8945C18.6565 35.8945 18.0332 35.5058 18.0332 34.7284C18.0332 33.9294 18.696 33.2897 20.0215 32.8092C19.3535 32.6095 18.8169 32.2748 18.4119 31.8051C18.0069 31.3354 17.8044 30.7956 17.8044 30.1856C17.8044 29.6241 17.9727 29.1167 18.3093 28.6632C18.646 28.2043 19.0905 27.8507 19.6428 27.6024C20.1951 27.3541 20.7947 27.2299 21.4417 27.2299C21.8309 27.2299 22.3096 27.3136 22.8777 27.4809C23.5352 27.6699 24.027 27.7643 24.3531 27.7643C24.5846 27.7643 24.8739 27.6915 25.221 27.5457C25.4367 27.4485 25.6261 27.3999 25.7891 27.3999C25.9943 27.3999 26.1678 27.4647 26.3099 27.5943C26.4571 27.7239 26.5308 27.8912 26.5308 28.0964C26.5308 28.3501 26.4492 28.5471 26.2862 28.6875C26.1231 28.8224 25.8917 28.8899 25.5919 28.8899C25.3131 28.8899 24.8818 28.7361 24.2979 28.4284C24.7397 28.9142 24.9607 29.4568 24.9607 30.056C24.9607 30.8982 24.6003 31.6 23.8797 32.1614C23.1644 32.7228 22.3149 33.0036 21.3312 33.0036C20.9473 33.0036 20.6185 32.9658 20.345 32.8902C20.0294 33.0791 19.8716 33.2735 19.8716 33.4732C19.8716 33.5812 19.9137 33.6676 19.9978 33.7324C20.0872 33.7917 20.1977 33.8214 20.3292 33.8214H23.3195C24.34 33.8214 25.0922 34.0158 25.5761 34.4045C26.06 34.7878 26.302 35.3114 26.302 35.9754C26.302 36.6017 26.039 37.2252 25.513 37.846C24.987 38.4722 24.2874 38.9878 23.4142 39.3927ZM19.6191 37.2144C19.6191 37.8568 19.8295 38.3427 20.2503 38.672C20.6764 39.0067 21.3049 39.174 22.136 39.174C22.9566 39.174 23.6062 38.9932 24.0849 38.6315C24.5635 38.2752 24.8029 37.8082 24.8029 37.2306C24.8029 36.8311 24.6372 36.5072 24.3058 36.2589C23.9797 36.0159 23.4826 35.8945 22.8146 35.8945H20.3765C19.8716 36.1968 19.6191 36.6367 19.6191 37.2144ZM19.9584 29.8212C19.9584 30.7011 20.1004 31.4029 20.3844 31.9266C20.6685 32.4448 21.0367 32.704 21.489 32.704C21.8835 32.704 22.1991 32.5015 22.4358 32.0966C22.6778 31.6863 22.7988 31.1276 22.7988 30.4204C22.7988 29.5458 22.6489 28.8467 22.3491 28.3231C22.0545 27.794 21.6915 27.5295 21.2602 27.5295C20.8657 27.5295 20.5501 27.7347 20.3134 28.1449C20.0767 28.5498 19.9584 29.1086 19.9584 29.8212Z" fill="#3C3C3C"/>
<path d="M26.2489 35.36V35.198C26.6697 35.1657 26.9459 35.0901 27.0774 34.9713C27.2142 34.8471 27.2825 34.6015 27.2825 34.2344V26.0719C27.2825 25.2244 27.2168 24.6062 27.0853 24.2175C26.9538 23.8289 26.7197 23.5508 26.3831 23.3835V23.2863C27.514 23.0542 28.5791 22.6898 29.5786 22.1931H29.7127C29.6443 22.6736 29.6101 23.9665 29.6101 26.0719V34.2344C29.6101 34.6015 29.6759 34.8471 29.8074 34.9713C29.9441 35.0901 30.2229 35.1657 30.6437 35.198V35.36H26.2489Z" fill="#3C3C3C"/>
<path d="M34.733 35.522C34.0386 35.522 33.4022 35.3681 32.8236 35.0604C32.2502 34.7473 31.79 34.2938 31.4428 33.7C31.0956 33.1007 30.9221 32.4151 30.9221 31.6432C30.9221 30.4015 31.3034 29.3569 32.0661 28.5093C32.8288 27.6564 33.7835 27.2299 34.9302 27.2299C35.9401 27.2299 36.7449 27.4998 37.3446 28.0397C37.9495 28.5741 38.2546 29.3056 38.2598 30.2341H33.2812C33.297 31.3354 33.5731 32.2289 34.1096 32.9145C34.6462 33.5947 35.3089 33.9348 36.0979 33.9348C37.0553 33.9348 37.8627 33.4813 38.5202 32.5744L38.6464 32.6554C38.2782 33.5353 37.7286 34.2317 36.9974 34.7446C36.261 35.2628 35.5062 35.522 34.733 35.522ZM33.2812 29.9669H35.1117C35.3905 29.9669 35.5693 29.9237 35.6482 29.8374C35.7324 29.751 35.7744 29.5674 35.7744 29.2867C35.7744 28.7469 35.685 28.3204 35.5062 28.0073C35.3326 27.6888 35.0749 27.5295 34.733 27.5295C34.37 27.5295 34.0413 27.7401 33.7467 28.1611C33.4521 28.5768 33.297 29.1787 33.2812 29.9669Z" fill="#3C3C3C"/>
<path d="M41.2388 35.36V35.198C42.4223 35.0523 43.0298 34.31 43.0614 32.9712L43.2586 25.5051C43.2639 24.8411 43.1166 24.3525 42.8168 24.0394C42.517 23.7263 42.0567 23.5319 41.436 23.4564V23.2863H46.1543C46.4436 24.1393 46.6356 24.6926 46.7303 24.9463L49.3971 31.8132L51.9535 25.2945C52.3375 24.3228 52.5373 23.6534 52.5531 23.2863H56.6402V23.4564C56.1457 23.4888 55.8143 23.5778 55.646 23.7236C55.483 23.8639 55.4041 24.1285 55.4093 24.5172L55.6066 34.1292C55.6224 34.5394 55.7039 34.8121 55.8512 34.947C55.9984 35.082 56.3246 35.1657 56.8295 35.198V35.36H51.7247V35.198C52.2191 35.1657 52.5505 35.0766 52.7188 34.9308C52.8871 34.7851 52.966 34.5178 52.9555 34.1292L52.7583 24.4281L48.4108 35.36H47.9611L43.661 24.4119L43.4559 32.9712C43.4506 33.6784 43.6163 34.2101 43.953 34.5664C44.2949 34.9227 44.813 35.1333 45.5073 35.198V35.36H41.2388Z" fill="#3C3C3C"/>
<path d="M60.7689 35.522C60.0746 35.522 59.4381 35.3681 58.8595 35.0604C58.2861 34.7473 57.8259 34.2938 57.4787 33.7C57.1316 33.1007 56.958 32.4151 56.958 31.6432C56.958 30.4015 57.3393 29.3569 58.102 28.5093C58.8647 27.6564 59.8194 27.2299 60.9661 27.2299C61.9761 27.2299 62.7808 27.4998 63.3805 28.0397C63.9854 28.5741 64.2905 29.3056 64.2957 30.2341H59.3171C59.3329 31.3354 59.609 32.2289 60.1456 32.9145C60.6821 33.5947 61.3448 33.9348 62.1339 33.9348C63.0912 33.9348 63.8986 33.4813 64.5561 32.5744L64.6823 32.6554C64.3141 33.5353 63.7645 34.2317 63.0333 34.7446C62.2969 35.2628 61.5421 35.522 60.7689 35.522ZM59.3171 29.9669H61.1476C61.4264 29.9669 61.6052 29.9237 61.6841 29.8374C61.7683 29.751 61.8104 29.5674 61.8104 29.2867C61.8104 28.7469 61.7209 28.3204 61.5421 28.0073C61.3685 27.6888 61.1108 27.5295 60.7689 27.5295C60.4059 27.5295 60.0772 27.7401 59.7826 28.1611C59.4881 28.5768 59.3329 29.1787 59.3171 29.9669Z" fill="#3C3C3C"/>
<path d="M67.8327 35.4572C66.9911 35.4572 66.2915 35.1036 65.7339 34.3964C65.1816 33.6838 64.9055 32.8065 64.9055 31.7646C64.9055 30.9063 65.0975 30.137 65.4815 29.4568C65.8654 28.7712 66.3835 28.2421 67.0358 27.8696C67.688 27.4917 68.4113 27.3028 69.2056 27.3028C69.5422 27.3028 69.8973 27.3352 70.2707 27.3999V26.0719C70.2707 25.246 70.2076 24.6332 70.0814 24.2337C69.9551 23.8343 69.7394 23.5508 69.4344 23.3835V23.2863C70.5285 23.038 71.5726 22.6736 72.5667 22.1931H72.693C72.6298 22.6358 72.5983 23.9287 72.5983 26.0719V33.5542C72.5983 34.0131 72.6509 34.31 72.7561 34.445C72.8613 34.5799 73.1006 34.6474 73.4741 34.6474V34.8094C72.3958 34.9389 71.3385 35.1765 70.3023 35.522H70.176L70.3023 34.2182C69.5659 35.0442 68.7427 35.4572 67.8327 35.4572ZM67.3593 30.7524C67.3593 31.7889 67.5434 32.6122 67.9116 33.2222C68.2798 33.8268 68.7585 34.1292 69.3476 34.1292C69.6737 34.1292 69.9814 34.0698 70.2707 33.951V29.06C70.2707 28.6821 70.1497 28.3447 69.9078 28.0478C69.6711 27.7508 69.3712 27.6024 69.0083 27.6024C68.5033 27.6024 68.1062 27.9047 67.8169 28.5093C67.5118 29.1194 67.3593 29.8671 67.3593 30.7524Z" fill="#3C3C3C"/>
<path d="M73.5788 35.36V35.198C73.9996 35.1657 74.2758 35.0901 74.4073 34.9713C74.5441 34.8471 74.6124 34.6015 74.6124 34.2344V30.6471C74.6124 29.6376 74.31 28.9979 73.7051 28.728V28.6308C74.6203 28.4095 75.6855 27.9425 76.9006 27.2299H77.0347C76.9716 27.678 76.94 28.817 76.94 30.6471V34.2344C76.94 34.6015 77.0058 34.8471 77.1373 34.9713C77.274 35.0901 77.5528 35.1657 77.9736 35.198V35.36H73.5788ZM74.289 24.3471C74.289 23.9638 74.4231 23.6372 74.6913 23.3673C74.9596 23.092 75.2778 22.9543 75.646 22.9543C76.0248 22.9543 76.3456 23.0893 76.6086 23.3592C76.8716 23.6291 77.0031 23.9584 77.0031 24.3471C77.0031 24.725 76.869 25.0489 76.6007 25.3188C76.3377 25.5888 76.0195 25.7237 75.646 25.7237C75.2726 25.7237 74.9517 25.5888 74.6835 25.3188C74.4205 25.0489 74.289 24.725 74.289 24.3471Z" fill="#3C3C3C"/>
<path d="M83.7198 35.4896C82.8203 35.4896 82.3469 35.0253 82.2996 34.0968C81.863 34.5772 81.4501 34.9308 81.0608 35.1576C80.6768 35.3789 80.2823 35.4896 79.8773 35.4896C79.3934 35.4896 78.9936 35.3384 78.678 35.0361C78.3677 34.7338 78.2125 34.3451 78.2125 33.87C78.2125 33.4489 78.3703 33.098 78.6859 32.8173C79.0015 32.5366 79.5643 32.2721 80.3744 32.0237L82.2838 31.4488V30.1532C82.2838 29.7429 82.1891 29.3974 81.9997 29.1167C81.8104 28.8359 81.5027 28.6956 81.0766 28.6956C80.8294 28.6956 80.5427 28.7388 80.2166 28.8251C79.8957 28.9061 79.7353 29.033 79.7353 29.2057C79.7353 29.2813 79.7879 29.4244 79.8931 29.6349C80.0772 29.9858 80.1693 30.2746 80.1693 30.5014C80.1693 30.7335 80.0877 30.9198 79.9247 31.0601C79.7669 31.1951 79.5617 31.2626 79.3092 31.2626C79.0778 31.2626 78.8858 31.1978 78.7333 31.0682C78.5807 30.9333 78.5045 30.7497 78.5045 30.5176C78.5045 29.9939 78.9095 29.365 79.7195 28.6308C80.6874 27.7455 81.6026 27.3028 82.4653 27.3028C83.0965 27.3028 83.6119 27.5025 84.0117 27.902C84.4115 28.2961 84.6114 28.8251 84.6114 29.4892V33.7648C84.6114 33.9645 84.6561 34.1238 84.7455 34.2425C84.8402 34.3559 84.969 34.4126 85.1321 34.4126C85.4109 34.4126 85.6528 34.2749 85.858 33.9996L86 34.0968C85.4319 35.0253 84.6719 35.4896 83.7198 35.4896ZM80.5243 33.1412C80.5243 33.4651 80.6085 33.7189 80.7768 33.9024C80.9504 34.0806 81.1844 34.1696 81.479 34.1696C81.6999 34.1696 81.9682 34.0401 82.2838 33.7809V31.7079L81.2975 32.0723C80.7821 32.2721 80.5243 32.6284 80.5243 33.1412Z" fill="#3C3C3C"/>
<g clip-path="url(#clip0_5555_5212)">
<path d="M75.0796 11.7157C75.1344 11.0213 75.1219 10.3114 75.2538 9.63524C75.6197 7.76727 76.5804 6.22055 77.8471 4.8811C79.8904 2.72036 82.2945 1.14773 85.057 0.173585C85.291 0.0906786 85.5399 0.0544071 85.7738 0C86.3761 1.3809 85.7439 3.32661 84.3403 4.19971C83.4468 4.75415 82.4339 5.10132 81.5379 5.65057C80.316 6.39931 79.1139 7.1947 77.979 8.07557C76.762 9.02122 75.8088 10.2285 75.2812 11.7571C75.214 11.7442 75.1443 11.7286 75.0771 11.7157H75.0796Z" fill="#245658"/>
<path d="M85.5722 5.11163C86.1371 6.40185 85.7016 8.24392 84.5567 9.15589C83.9843 9.61187 83.3024 9.92277 82.6504 10.2596C81.3985 10.9073 80.1044 11.4747 78.8799 12.1742C77.7475 12.8219 76.9337 13.809 76.548 15.1277C76.5256 15.2054 76.4633 15.2702 76.3787 15.4101C75.7316 14.5033 75.7292 13.568 76.0278 12.6069C76.436 11.3037 77.2722 10.301 78.2378 9.41238C80.2313 7.57549 82.4886 6.192 84.9948 5.24894C85.1839 5.17899 85.388 5.15049 85.5746 5.10645L85.5722 5.11163Z" fill="#245658"/>
<path d="M79.6591 13.4204C79.445 14.1484 79.1638 14.8376 79.0593 15.5527C78.9572 16.2651 79.0369 17.0061 79.0369 17.931C78.3774 17.3973 77.79 16.9361 77.2251 16.4491C77.1429 16.3791 77.1181 16.1719 77.1454 16.0449C77.342 15.1459 78.7183 13.7261 79.6591 13.4204Z" fill="#245658"/>
</g>
<g clip-path="url(#clip1_5555_5212)">
<path d="M10.9213 11.7157C10.8666 11.0213 10.879 10.3114 10.7471 9.63524C10.3813 7.76727 9.42062 6.22055 8.15385 4.8811C6.11059 2.72036 3.70645 1.14773 0.943941 0.173585C0.709998 0.0906786 0.461123 0.0544071 0.22718 0C-0.375097 1.3809 0.257046 3.32661 1.6607 4.19971C2.55416 4.75415 3.56708 5.10132 4.46303 5.65057C5.68501 6.39931 6.88708 7.1947 8.02195 8.07557C9.23894 9.02122 10.1921 10.2285 10.7198 11.7571C10.7869 11.7442 10.8566 11.7286 10.9238 11.7157H10.9213Z" fill="#245658"/>
<path d="M0.427841 5.11163C-0.137105 6.40185 0.298426 8.24392 1.44325 9.15589C2.01566 9.61187 2.69758 9.92277 3.34963 10.2596C4.60147 10.9073 5.89562 11.4747 7.12009 12.1742C8.25247 12.8219 9.06629 13.809 9.45205 15.1277C9.47445 15.2054 9.53667 15.2702 9.62128 15.4101C10.2684 14.5033 10.2708 13.568 9.9722 12.6069C9.56404 11.3037 8.72782 10.301 7.76219 9.41238C5.7687 7.57549 3.5114 6.192 1.00523 5.24894C0.816086 5.17899 0.612009 5.15049 0.425353 5.10645L0.427841 5.11163Z" fill="#245658"/>
<path d="M6.34191 13.4204C6.55594 14.1484 6.83717 14.8376 6.9417 15.5527C7.04373 16.2651 6.96409 17.0061 6.96409 17.931C7.62361 17.3973 8.21096 16.9361 8.7759 16.4491C8.85803 16.3791 8.88292 16.1719 8.85554 16.0449C8.65893 15.1459 7.28265 13.7261 6.34191 13.4204Z" fill="#245658"/>
</g>
<defs>
<clipPath id="clip0_5555_5212">
<rect width="10.9206" height="17.931" fill="white" transform="translate(75.0796)"/>
</clipPath>
<clipPath id="clip1_5555_5212">
<rect width="10.9206" height="17.931" fill="white" transform="matrix(-1 0 0 1 10.9209 0)"/>
</clipPath>
</defs>
</svg>
