<svg width="173" height="80" viewBox="0 0 173 80" fill="none" xmlns="http://www.w3.org/2000/svg">
<path d="M27.8022 31.8511V31.5272C28.7806 31.4624 29.4329 31.2843 29.759 30.9927C30.0956 30.7012 30.2639 30.1668 30.2639 29.3894V10.1654C30.2639 9.38804 30.0956 8.85899 29.759 8.57827C29.4329 8.28675 28.7806 8.1086 27.8022 8.04382V7.70372H44.9394L46.123 13.8742H45.8074C45.0289 12.4274 44.2136 11.2937 43.3614 10.4731C42.5093 9.65257 41.5678 9.07493 40.5368 8.74023C39.5058 8.40552 38.2802 8.23817 36.86 8.23817H35.5661V19.3158H37.7279C38.4012 19.3158 38.9903 19.2133 39.4953 19.0081C40.0108 18.803 40.4579 18.4845 40.8366 18.0526C41.2153 17.6099 41.5362 17.1187 41.7992 16.5788C42.0727 16.0282 42.341 15.348 42.604 14.5382H42.9354V24.8223H42.604C42.1095 23.138 41.4994 21.9017 40.7735 21.1135C40.0476 20.3146 39.0324 19.9151 37.7279 19.9151H35.5661V29.5999C35.5661 30.1506 35.7239 30.5771 36.0395 30.8794C36.3551 31.1709 36.7969 31.3167 37.365 31.3167H38.012C39.8214 31.3167 41.4468 30.8578 42.888 29.94C44.3293 29.0115 45.7337 27.4729 47.1013 25.3243H47.4169L45.5233 31.8511H27.8022Z" fill="#245658"/>
<path d="M66.894 31.8511V31.5272C67.6199 31.4624 68.1038 31.3059 68.3458 31.0575C68.5877 30.8092 68.7087 30.3233 68.7087 29.5999V21.9719C68.7087 20.8058 68.451 19.9421 67.9355 19.3806C67.42 18.8084 66.6889 18.5223 65.742 18.5223C65.0372 18.5223 64.3166 18.722 63.5802 19.1215C63.6854 19.7909 63.738 20.3847 63.738 20.903V29.5999C63.738 30.3233 63.8642 30.8092 64.1167 31.0575C64.3797 31.3059 64.9004 31.4624 65.6789 31.5272V31.8511H57.2681V31.5272C57.994 31.4624 58.4779 31.3059 58.7199 31.0575C58.9619 30.8092 59.0828 30.3233 59.0828 29.5999V21.9719C59.0828 20.8058 58.8198 19.9421 58.2938 19.3806C57.7784 18.8084 57.0472 18.5223 56.1004 18.5223C55.4481 18.5223 54.7801 18.695 54.0963 19.0405V29.5999C54.0963 30.3233 54.2173 30.8092 54.4593 31.0575C54.7012 31.3059 55.1852 31.4624 55.911 31.5272V31.8511H47.516V31.5272C48.2945 31.4624 48.81 31.3059 49.0625 31.0575C49.3255 30.8092 49.457 30.3233 49.457 29.5999V22.4254C49.457 20.3955 48.8941 19.1161 47.7685 18.587V18.3927C49.4728 17.9608 51.561 17.0269 54.0332 15.5909H54.3015L54.0332 18.6518C55.1063 17.6261 56.0531 16.8865 56.8736 16.4331C57.6942 15.9688 58.6147 15.7367 59.6351 15.7367C61.676 15.7367 62.9542 16.73 63.4697 18.7166C64.5848 17.6801 65.5685 16.9243 66.4206 16.4493C67.2832 15.9742 68.23 15.7367 69.261 15.7367C70.5865 15.7367 71.6017 16.1739 72.3066 17.0485C73.0114 17.923 73.3638 19.2079 73.3638 20.903V29.5999C73.3638 30.3233 73.4901 30.8092 73.7426 31.0575C74.0056 31.3059 74.5263 31.4624 75.3048 31.5272V31.8511H66.894Z" fill="#245658"/>
<path d="M83.4044 32.175C82.0158 32.175 80.7428 31.8673 79.5856 31.2519C78.4389 30.6257 77.5184 29.7187 76.8241 28.531C76.1298 27.3326 75.7826 25.9614 75.7826 24.4174C75.7826 21.9341 76.5453 19.8449 78.0707 18.1498C79.5961 16.4439 81.5055 15.5909 83.7989 15.5909C85.8188 15.5909 87.4283 16.1307 88.6276 17.2104C89.8374 18.2793 90.4476 19.7423 90.4581 21.5994H80.5009C80.5324 23.802 81.0847 25.5889 82.1578 26.9601C83.2308 28.3205 84.5563 29.0007 86.1344 29.0007C88.049 29.0007 89.6638 28.0938 90.9789 26.2799L91.2313 26.4418C90.4949 28.2017 89.3956 29.5945 87.9333 30.6203C86.4605 31.6568 84.9509 32.175 83.4044 32.175ZM80.5009 21.0649H84.1618C84.7194 21.0649 85.0771 20.9786 85.2349 20.8058C85.4032 20.6331 85.4874 20.266 85.4874 19.7045C85.4874 18.6248 85.3085 17.7719 84.9509 17.1457C84.6037 16.5086 84.0882 16.1901 83.4044 16.1901C82.6785 16.1901 82.021 16.6112 81.4319 17.4534C80.8428 18.2847 80.5324 19.4886 80.5009 21.0649Z" fill="#245658"/>
<path d="M91.3304 31.8511V31.5272C92.1089 31.4624 92.6244 31.3059 92.8769 31.0575C93.1399 30.8092 93.2714 30.3233 93.2714 29.5999V22.4254C93.2714 20.3955 92.7086 19.1161 91.5829 18.587V18.3927C93.2872 17.9608 95.3754 17.0269 97.8476 15.5909H98.1159L97.8476 19.6721C98.3315 18.8624 98.6997 18.2793 98.9522 17.923C100.025 16.3683 101.177 15.5909 102.408 15.5909C103.166 15.5909 103.776 15.8284 104.239 16.3035C104.701 16.7678 104.933 17.3724 104.933 18.1174C104.933 18.8408 104.696 19.4454 104.223 19.9313C103.749 20.4063 103.166 20.6439 102.471 20.6439C101.935 20.6439 101.319 20.3416 100.625 19.7369C100.067 19.3266 99.6834 19.1215 99.473 19.1215C98.9154 19.1215 98.3946 19.494 97.9107 20.239V29.5999C97.9107 30.3341 98.0738 30.8254 98.3999 31.0737C98.7366 31.3113 99.4361 31.4624 100.499 31.5272V31.8511H91.3304Z" fill="#245658"/>
<path d="M115.557 32.1102C113.758 32.1102 112.812 31.1817 112.717 29.3246C111.844 30.2855 111.018 30.9927 110.239 31.4462C109.471 31.8889 108.682 32.1102 107.872 32.1102C106.905 32.1102 106.105 31.8079 105.474 31.2033C104.853 30.5987 104.543 29.8213 104.543 28.8711C104.543 28.029 104.858 27.3272 105.49 26.7657C106.121 26.2043 107.246 25.6752 108.867 25.1786L112.685 24.0287V21.4374C112.685 20.6169 112.496 19.9259 112.117 19.3644C111.739 18.803 111.123 18.5223 110.271 18.5223C109.777 18.5223 109.203 18.6086 108.551 18.7814C107.909 18.9433 107.588 19.1971 107.588 19.5426C107.588 19.6937 107.694 19.9799 107.904 20.4009C108.272 21.1027 108.456 21.6804 108.456 22.1338C108.456 22.5981 108.293 22.9706 107.967 23.2513C107.651 23.5213 107.241 23.6562 106.736 23.6562C106.273 23.6562 105.889 23.5267 105.584 23.2675C105.279 22.9976 105.127 22.6305 105.127 22.1662C105.127 21.1189 105.937 19.8611 107.557 18.3927C109.492 16.622 111.323 15.7367 113.048 15.7367C114.311 15.7367 115.342 16.1361 116.141 16.9351C116.941 17.7233 117.34 18.7814 117.34 20.1094V28.6606C117.34 29.0601 117.43 29.3786 117.609 29.6161C117.798 29.8429 118.056 29.9562 118.382 29.9562C118.94 29.9562 119.423 29.6809 119.834 29.1303L120.118 29.3246C118.982 31.1817 117.461 32.1102 115.557 32.1102ZM109.166 27.4136C109.166 28.0614 109.335 28.5688 109.671 28.9359C110.019 29.2922 110.487 29.4704 111.076 29.4704C111.518 29.4704 112.054 29.2113 112.685 28.693V24.547L110.713 25.2758C109.682 25.6752 109.166 26.3878 109.166 27.4136Z" fill="#245658"/>
<path d="M119.665 31.8511V31.5272C120.506 31.4624 121.058 31.3113 121.321 31.0737C121.595 30.8254 121.732 30.3341 121.732 29.5999V13.2749C121.732 11.5798 121.6 10.3436 121.337 9.56619C121.074 8.78881 120.606 8.23277 119.933 7.89806V7.70372C122.195 7.23945 124.325 6.51065 126.324 5.51733H126.592C126.455 6.47826 126.387 9.06413 126.387 13.2749V29.5999C126.387 30.3341 126.518 30.8254 126.781 31.0737C127.055 31.3113 127.612 31.4624 128.454 31.5272V31.8511H119.665Z" fill="#245658"/>
<path d="M134.897 32.0455C133.214 32.0455 131.814 31.3383 130.699 29.9239C129.595 28.4987 129.042 26.7441 129.042 24.6603C129.042 22.9436 129.426 21.4051 130.194 20.0446C130.962 18.6734 131.999 17.6153 133.303 16.8703C134.607 16.1145 136.054 15.7367 137.643 15.7367C138.316 15.7367 139.026 15.8014 139.773 15.931V13.2749C139.773 11.623 139.647 10.3976 139.394 9.59858C139.142 8.79961 138.71 8.23277 138.1 7.89806V7.70372C140.288 7.20706 142.377 6.47826 144.365 5.51733H144.617C144.491 6.40268 144.428 8.98856 144.428 13.2749V28.2395C144.428 29.1573 144.533 29.7511 144.744 30.021C144.954 30.2909 145.433 30.4259 146.18 30.4259V30.7498C144.023 31.0089 141.908 31.484 139.836 32.175H139.583L139.836 29.5676C138.363 31.2195 136.717 32.0455 134.897 32.0455ZM133.95 22.6359C133.95 24.7089 134.318 26.3555 135.055 27.5755C135.791 28.7848 136.748 29.3894 137.927 29.3894C138.579 29.3894 139.194 29.2706 139.773 29.0331V19.2511C139.773 18.4953 139.531 17.8205 139.047 17.2266C138.574 16.6328 137.974 16.3359 137.248 16.3359C136.238 16.3359 135.444 16.9405 134.865 18.1498C134.255 19.3698 133.95 20.8652 133.95 22.6359Z" fill="#245658"/>
<path d="M0.5 70.72V70.3961C1.47837 70.3313 2.13061 70.1532 2.45673 69.8616C2.79338 69.5701 2.9617 69.0357 2.9617 68.2583V49.0343C2.9617 48.2569 2.79338 47.7279 2.45673 47.4472C2.13061 47.1556 1.47837 46.9775 0.5 46.9127V46.5726H17.6372L18.8207 52.7431H18.5051C17.7266 51.2963 16.9113 50.1626 16.0592 49.342C15.2071 48.5215 14.2655 47.9438 13.2345 47.6091C12.2036 47.2744 10.978 47.1071 9.55778 47.1071H8.26381V58.1847H10.4257C11.099 58.1847 11.6881 58.0822 12.1931 57.877C12.7085 57.6719 13.1556 57.3534 13.5344 56.9215C13.9131 56.4788 14.234 55.9876 14.497 55.4477C14.7705 54.8971 15.0387 54.2169 15.3017 53.4071H15.6331V63.6912H15.3017C14.8073 62.0069 14.1971 60.7706 13.4712 59.9824C12.7454 59.1835 11.7302 58.784 10.4257 58.784H8.26381V68.4688C8.26381 69.0195 8.42161 69.446 8.73722 69.7483C9.05282 70.0398 9.49466 70.1856 10.0627 70.1856H10.7097C12.5192 70.1856 14.1445 69.7267 15.5858 68.8089C17.027 67.8804 18.4315 66.3418 19.7991 64.1932H20.1147L18.2211 70.72H0.5Z" fill="#3C3C3C"/>
<path d="M31.4808 70.9791C29.6818 70.9791 28.735 70.0506 28.6403 68.1935C27.7672 69.1544 26.9414 69.8617 26.1629 70.3151C25.3949 70.7578 24.6059 70.9791 23.7959 70.9791C22.828 70.9791 22.0285 70.6768 21.3973 70.0722C20.7766 69.4676 20.4663 68.6902 20.4663 67.74C20.4663 66.8979 20.7819 66.1961 21.4131 65.6346C22.0443 65.0732 23.1699 64.5441 24.79 64.0475L28.6088 62.8976V60.3063C28.6088 59.4858 28.4194 58.7948 28.0407 58.2333C27.662 57.6719 27.0466 57.3912 26.1944 57.3912C25.7 57.3912 25.1266 57.4775 24.4744 57.6503C23.8327 57.8122 23.5118 58.066 23.5118 58.4115C23.5118 58.5626 23.617 58.8488 23.8274 59.2698C24.1956 59.9716 24.3797 60.5493 24.3797 61.0027C24.3797 61.467 24.2167 61.8395 23.8905 62.1202C23.5749 62.3902 23.1647 62.5251 22.6597 62.5251C22.1968 62.5251 21.8128 62.3956 21.5077 62.1364C21.2027 61.8665 21.0501 61.4994 21.0501 61.0351C21.0501 59.9878 21.8602 58.73 23.4803 57.2616C25.4159 55.4909 27.2464 54.6056 28.9717 54.6056C30.2341 54.6056 31.2651 55.005 32.0646 55.804C32.8642 56.5922 33.2639 57.6503 33.2639 58.9783V67.5295C33.2639 67.929 33.3533 68.2475 33.5322 68.485C33.7215 68.7118 33.9793 68.8251 34.3054 68.8251C34.863 68.8251 35.3469 68.5498 35.7572 67.9992L36.0412 68.1935C34.9051 70.0506 33.3849 70.9791 31.4808 70.9791ZM25.0898 66.2825C25.0898 66.9303 25.2581 67.4377 25.5948 67.8048C25.942 68.1611 26.4101 68.3393 26.9992 68.3393C27.4411 68.3393 27.9776 68.0802 28.6088 67.5619V63.4159L26.6363 64.1447C25.6053 64.5441 25.0898 65.2567 25.0898 66.2825Z" fill="#3C3C3C"/>
<path d="M47.3284 78.7853C45.6136 79.5951 43.7726 80 41.8054 80C39.8381 80 38.3075 79.7139 37.2134 79.1416C36.1298 78.5694 35.588 77.7542 35.588 76.6961C35.588 75.7352 35.9667 74.8498 36.7242 74.0401C37.4816 73.2411 38.6757 72.4907 40.3063 71.7889C37.813 71.7889 36.5664 71.0115 36.5664 69.4568C36.5664 67.8588 37.8919 66.5794 40.543 65.6184C39.2069 65.219 38.1339 64.5495 37.3238 63.6102C36.5138 62.6709 36.1088 61.5912 36.1088 60.3711C36.1088 59.2482 36.4454 58.2333 37.1187 57.3264C37.792 56.4086 38.6809 55.7014 39.7855 55.2048C40.8901 54.7081 42.0894 54.4598 43.3834 54.4598C44.1619 54.4598 45.1192 54.6271 46.2554 54.9618C47.5704 55.3397 48.554 55.5287 49.2062 55.5287C49.6691 55.5287 50.2477 55.3829 50.9421 55.0914C51.3734 54.8971 51.7521 54.7999 52.0782 54.7999C52.4885 54.7999 52.8357 54.9295 53.1197 55.1886C53.4143 55.4477 53.5616 55.7824 53.5616 56.1927C53.5616 56.7002 53.3985 57.0942 53.0724 57.375C52.7463 57.6449 52.2834 57.7799 51.6837 57.7799C51.1262 57.7799 50.2635 57.4721 49.0958 56.8567C49.9795 57.8284 50.4213 58.9135 50.4213 60.112C50.4213 61.7963 49.7007 63.1999 48.2594 64.3228C46.8287 65.4457 45.1297 66.0071 43.1625 66.0071C42.3945 66.0071 41.737 65.9316 41.19 65.7804C40.5588 66.1583 40.2431 66.547 40.2431 66.9465C40.2431 67.1624 40.3273 67.3352 40.4956 67.4647C40.6745 67.5835 40.8954 67.6429 41.1584 67.6429H47.1391C49.1799 67.6429 50.6843 68.0316 51.6522 68.8089C52.62 69.5755 53.1039 70.6228 53.1039 71.9509C53.1039 73.2033 52.5779 74.4504 51.5259 75.692C50.4739 76.9445 49.0747 77.9756 47.3284 78.7853ZM39.7382 74.4288C39.7382 75.7136 40.159 76.6853 41.0006 77.3439C41.8527 78.0133 43.1099 78.3481 44.772 78.3481C46.4132 78.3481 47.7124 77.9864 48.6697 77.263C49.6271 76.5504 50.1057 75.6164 50.1057 74.4612C50.1057 73.6622 49.7743 73.0144 49.1116 72.5177C48.4593 72.0318 47.4652 71.7889 46.1291 71.7889H41.2531C40.2431 72.3935 39.7382 73.2735 39.7382 74.4288ZM40.4167 59.6423C40.4167 61.4022 40.7008 62.8058 41.2689 63.8531C41.8369 64.8896 42.5733 65.4079 43.4781 65.4079C44.2671 65.4079 44.8983 65.003 45.3717 64.1932C45.8556 63.3727 46.0976 62.2552 46.0976 60.8408C46.0976 59.0917 45.7977 57.6935 45.1981 56.6462C44.609 55.5881 43.8831 55.059 43.0204 55.059C42.2314 55.059 41.6002 55.4693 41.1268 56.2899C40.6534 57.0996 40.4167 58.2171 40.4167 59.6423Z" fill="#3C3C3C"/>
<path d="M52.9979 70.72V70.3961C53.8395 70.3313 54.3918 70.1802 54.6548 69.9426C54.9283 69.6943 55.0651 69.203 55.0651 68.4688V52.1438C55.0651 50.4487 54.9336 49.2125 54.6706 48.4351C54.4076 47.6577 53.9394 47.1017 53.2662 46.767V46.5726C55.528 46.1083 57.6583 45.3796 59.6571 44.3862H59.9254C59.7886 45.3472 59.7202 47.933 59.7202 52.1438V68.4688C59.7202 69.203 59.8517 69.6943 60.1147 69.9426C60.3882 70.1802 60.9458 70.3313 61.7874 70.3961V70.72H52.9979Z" fill="#3C3C3C"/>
<path d="M69.9659 71.0439C68.5773 71.0439 67.3044 70.7362 66.1471 70.1208C65.0005 69.4946 64.0799 68.5876 63.3856 67.3999C62.6913 66.2015 62.3441 64.8303 62.3441 63.2863C62.3441 60.803 63.1068 58.7138 64.6323 57.0187C66.1577 55.3128 68.0671 54.4598 70.3604 54.4598C72.3803 54.4598 73.9899 54.9996 75.1891 56.0793C76.3989 57.1482 77.0091 58.6112 77.0196 60.4683H67.0624C67.0939 62.6709 67.6463 64.4578 68.7193 65.829C69.7923 67.1894 71.1179 67.8696 72.6959 67.8696C74.6105 67.8696 76.2254 66.9627 77.5404 65.1488L77.7929 65.3107C77.0565 67.0706 75.9571 68.4634 74.4948 69.4892C73.022 70.5257 71.5124 71.0439 69.9659 71.0439ZM67.0624 59.9338H70.7234C71.2809 59.9338 71.6386 59.8475 71.7964 59.6747C71.9647 59.502 72.0489 59.1349 72.0489 58.5734C72.0489 57.4937 71.8701 56.6408 71.5124 56.0146C71.1652 55.3775 70.6497 55.059 69.9659 55.059C69.24 55.059 68.5825 55.4801 67.9934 56.3223C67.4043 57.1536 67.0939 58.3575 67.0624 59.9338Z" fill="#3C3C3C"/>
<path d="M82.9776 70.72V70.3961C85.3446 70.1046 86.5597 68.62 86.6228 65.9424L87.0173 51.0102C87.0278 49.6821 86.7332 48.705 86.1336 48.0788C85.534 47.4526 84.6134 47.0639 83.3721 46.9127V46.5726H92.8086C93.3872 48.2785 93.7712 49.3852 93.9605 49.8927L99.2942 63.6264L104.407 50.5891C105.175 48.6456 105.575 47.3068 105.606 46.5726H113.78V46.9127C112.791 46.9775 112.129 47.1556 111.792 47.4472C111.466 47.7279 111.308 48.2569 111.319 49.0343L111.713 68.2583C111.745 69.0789 111.908 69.6241 112.202 69.894C112.497 70.164 113.149 70.3313 114.159 70.3961V70.72H103.949V70.3961C104.938 70.3313 105.601 70.1532 105.938 69.8616C106.274 69.5701 106.432 69.0357 106.411 68.2583L106.017 48.8562L97.3217 70.72H96.4222L87.8221 48.8238L87.4118 65.9424C87.4013 67.3568 87.7326 68.4203 88.4059 69.1329C89.0897 69.8455 90.126 70.2665 91.5146 70.3961V70.72H82.9776Z" fill="#3C3C3C"/>
<path d="M122.038 71.0439C120.649 71.0439 119.376 70.7362 118.219 70.1208C117.072 69.4946 116.152 68.5876 115.457 67.3999C114.763 66.2015 114.416 64.8303 114.416 63.2863C114.416 60.803 115.179 58.7138 116.704 57.0187C118.229 55.3128 120.139 54.4598 122.432 54.4598C124.452 54.4598 126.062 54.9996 127.261 56.0793C128.471 57.1482 129.081 58.6112 129.091 60.4683H119.134C119.166 62.6709 119.718 64.4578 120.791 65.829C121.864 67.1894 123.19 67.8696 124.768 67.8696C126.682 67.8696 128.297 66.9627 129.612 65.1488L129.865 65.3107C129.128 67.0706 128.029 68.4634 126.567 69.4892C125.094 70.5257 123.584 71.0439 122.038 71.0439ZM119.134 59.9338H122.795C123.353 59.9338 123.71 59.8475 123.868 59.6747C124.037 59.502 124.121 59.1349 124.121 58.5734C124.121 57.4937 123.942 56.6408 123.584 56.0146C123.237 55.3775 122.722 55.059 122.038 55.059C121.312 55.059 120.654 55.4801 120.065 56.3223C119.476 57.1536 119.166 58.3575 119.134 59.9338Z" fill="#3C3C3C"/>
<path d="M136.165 70.9144C134.482 70.9144 133.083 70.2072 131.968 68.7928C130.863 67.3676 130.311 65.613 130.311 63.5292C130.311 61.8125 130.695 60.2739 131.463 58.9135C132.231 57.5423 133.267 56.4842 134.572 55.7392C135.876 54.9834 137.323 54.6056 138.911 54.6056C139.584 54.6056 140.295 54.6703 141.041 54.7999V52.1438C141.041 50.4919 140.915 49.2665 140.663 48.4675C140.41 47.6685 139.979 47.1017 139.369 46.767V46.5726C141.557 46.076 143.645 45.3472 145.633 44.3862H145.886C145.76 45.2716 145.697 47.8575 145.697 52.1438V67.1084C145.697 68.0262 145.802 68.62 146.012 68.8899C146.223 69.1598 146.701 69.2948 147.448 69.2948V69.6187C145.292 69.8778 143.177 70.3529 141.105 71.0439H140.852L141.105 68.4364C139.632 70.0884 137.985 70.9144 136.165 70.9144ZM135.219 61.5048C135.219 63.5778 135.587 65.2244 136.323 66.4444C137.06 67.6537 138.017 68.2583 139.195 68.2583C139.847 68.2583 140.463 68.1395 141.041 67.902V58.12C141.041 57.3642 140.799 56.6894 140.316 56.0955C139.842 55.5017 139.242 55.2048 138.517 55.2048C137.507 55.2048 136.712 55.8094 136.134 57.0187C135.524 58.2387 135.219 59.7341 135.219 61.5048Z" fill="#3C3C3C"/>
<path d="M147.658 70.72V70.3961C148.499 70.3313 149.052 70.1802 149.315 69.9426C149.588 69.6943 149.725 69.203 149.725 68.4688V61.2943C149.725 59.2752 149.12 57.9958 147.91 57.4559V57.2616C149.741 56.8189 151.871 55.885 154.301 54.4598H154.569C154.443 55.3559 154.38 57.6341 154.38 61.2943V68.4688C154.38 69.203 154.512 69.6943 154.775 69.9426C155.048 70.1802 155.606 70.3313 156.447 70.3961V70.72H147.658ZM149.078 48.6942C149.078 47.9276 149.346 47.2744 149.883 46.7346C150.419 46.1839 151.056 45.9086 151.792 45.9086C152.55 45.9086 153.191 46.1785 153.717 46.7184C154.243 47.2582 154.506 47.9168 154.506 48.6942C154.506 49.45 154.238 50.0978 153.701 50.6377C153.175 51.1775 152.539 51.4474 151.792 51.4474C151.045 51.4474 150.403 51.1775 149.867 50.6377C149.341 50.0978 149.078 49.45 149.078 48.6942Z" fill="#3C3C3C"/>
<path d="M167.94 70.9791C166.141 70.9791 165.194 70.0506 165.099 68.1935C164.226 69.1544 163.4 69.8617 162.622 70.3151C161.854 70.7578 161.065 70.9791 160.255 70.9791C159.287 70.9791 158.487 70.6768 157.856 70.0722C157.235 69.4676 156.925 68.6902 156.925 67.74C156.925 66.8979 157.241 66.1961 157.872 65.6346C158.503 65.0732 159.629 64.5441 161.249 64.0475L165.068 62.8976V60.3063C165.068 59.4858 164.878 58.7948 164.499 58.2333C164.121 57.6719 163.505 57.3912 162.653 57.3912C162.159 57.3912 161.585 57.4775 160.933 57.6503C160.291 57.8122 159.971 58.066 159.971 58.4115C159.971 58.5626 160.076 58.8488 160.286 59.2698C160.654 59.9716 160.839 60.5493 160.839 61.0027C160.839 61.467 160.675 61.8395 160.349 62.1202C160.034 62.3902 159.623 62.5251 159.118 62.5251C158.656 62.5251 158.272 62.3956 157.967 62.1364C157.661 61.8665 157.509 61.4994 157.509 61.0351C157.509 59.9878 158.319 58.73 159.939 57.2616C161.875 55.4909 163.705 54.6056 165.431 54.6056C166.693 54.6056 167.724 55.005 168.523 55.804C169.323 56.5922 169.723 57.6503 169.723 58.9783V67.5295C169.723 67.929 169.812 68.2475 169.991 68.485C170.18 68.7118 170.438 68.8251 170.764 68.8251C171.322 68.8251 171.806 68.5498 172.216 67.9992L172.5 68.1935C171.364 70.0506 169.844 70.9791 167.94 70.9791ZM161.549 66.2825C161.549 66.9303 161.717 67.4377 162.054 67.8048C162.401 68.1611 162.869 68.3393 163.458 68.3393C163.9 68.3393 164.436 68.0802 165.068 67.5619V63.4159L163.095 64.1447C162.064 64.5441 161.549 65.2567 161.549 66.2825Z" fill="#3C3C3C"/>
<g clip-path="url(#clip0_5555_9193)">
<path d="M150.659 23.4313C150.768 22.0427 150.743 20.6229 151.007 19.2705C151.739 15.5345 153.66 12.4411 156.194 9.76219C160.28 5.44071 165.089 2.29546 170.614 0.347169C171.081 0.181357 171.579 0.108814 172.047 0C173.252 2.76181 171.987 6.65321 169.18 8.39942C167.393 9.50829 165.367 10.2026 163.575 11.3011C161.131 12.7986 158.727 14.3894 156.458 16.1511C154.024 18.0424 152.117 20.4571 151.062 23.5142C150.928 23.4883 150.788 23.4572 150.654 23.4313H150.659Z" fill="#245658"/>
<path d="M171.644 10.2233C172.774 12.8037 171.903 16.4878 169.613 18.3118C168.468 19.2237 167.104 19.8455 165.8 20.5192C163.297 21.8146 160.708 22.9493 158.259 24.3484C155.995 25.6438 154.367 27.618 153.595 30.2554C153.551 30.4109 153.426 30.5404 153.257 30.8202C151.963 29.0067 151.958 27.1361 152.555 25.2137C153.371 22.6074 155.044 20.6021 156.975 18.8248C160.962 15.151 165.477 12.384 170.489 10.4979C170.867 10.358 171.275 10.301 171.649 10.2129L171.644 10.2233Z" fill="#245658"/>
<path d="M159.817 26.8408C159.389 28.2969 158.827 29.6752 158.618 31.1053C158.414 32.5303 158.573 34.0122 158.573 35.862C157.254 34.7946 156.079 33.8723 154.949 32.8981C154.785 32.7582 154.735 32.3437 154.79 32.0898C155.183 30.2918 157.936 27.4523 159.817 26.8408Z" fill="#245658"/>
</g>
<g clip-path="url(#clip1_5555_9193)">
<path d="M22.3412 23.4313C22.2317 22.0427 22.2566 20.6229 21.9928 19.2705C21.2611 15.5345 19.3398 12.4411 16.8062 9.76219C12.7197 5.44071 7.91144 2.29546 2.38642 0.347169C1.91853 0.181357 1.42078 0.108814 0.952896 0C-0.251659 2.76181 1.01263 6.65321 3.81994 8.39942C5.60686 9.50829 7.6327 10.2026 9.4246 11.3011C11.8686 12.7986 14.2727 14.3894 16.5424 16.1511C18.9764 18.0424 20.8828 20.4571 21.938 23.5142C22.0724 23.4883 22.2118 23.4572 22.3462 23.4313H22.3412Z" fill="#245658"/>
<path d="M1.35617 10.2233C0.226278 12.8037 1.09734 16.4878 3.38699 18.3118C4.53181 19.2237 5.89565 19.8455 7.19975 20.5192C9.70344 21.8146 12.2917 22.9493 14.7407 24.3484C17.0054 25.6438 18.6331 27.618 19.4046 30.2554C19.4494 30.4109 19.5738 30.5404 19.7431 30.8202C21.0372 29.0067 21.0422 27.1361 20.4449 25.2137C19.6286 22.6074 17.9561 20.6021 16.0249 18.8248C12.0379 15.151 7.52329 12.384 2.51095 10.4979C2.13266 10.358 1.72451 10.301 1.35119 10.2129L1.35617 10.2233Z" fill="#245658"/>
<path d="M13.1828 26.8408C13.6109 28.2969 14.1734 29.6752 14.3824 31.1053C14.5865 32.5303 14.4272 34.0122 14.4272 35.862C15.7462 34.7946 16.9209 33.8723 18.0508 32.8981C18.2151 32.7582 18.2649 32.3437 18.2101 32.0898C17.8169 30.2918 15.0643 27.4523 13.1828 26.8408Z" fill="#245658"/>
</g>
<defs>
<clipPath id="clip0_5555_9193">
<rect width="21.8413" height="35.8621" fill="white" transform="translate(150.659)"/>
</clipPath>
<clipPath id="clip1_5555_9193">
<rect width="21.8413" height="35.8621" fill="white" transform="matrix(-1 0 0 1 22.3413 0)"/>
</clipPath>
</defs>
</svg>
