<svg width="24" height="25" viewBox="0 0 24 25" fill="none" xmlns="http://www.w3.org/2000/svg">
<g id="file / cloud_down">
<path id="Vector" d="M18 13.5L15 16.1667H17.25V21.5H18.75V16.1667H21L18 13.5Z" fill="black"/>
<path id="Subtract" fill-rule="evenodd" clip-rule="evenodd" d="M12.28 2.69016L19.28 9.69016C19.4243 9.8405 19.5034 10.0418 19.5 10.2502V12.5H18V11.0002H13.75C12.2312 11.0002 11 9.76894 11 8.25016V4.00016H8.75C6.95735 4.00565 5.50549 5.45751 5.5 7.25016V17.2502C5.50549 19.0428 6.95735 20.4947 8.75 20.5002H14.75C14.8341 20.4999 14.9175 20.4965 15 20.4899V21.9937C14.9172 21.998 14.8339 22.0002 14.75 22.0002H8.75C6.12665 22.0002 4 19.8735 4 17.2502V7.25016C4 4.62681 6.12665 2.50016 8.75 2.50016H11.75C11.944 2.49625 12.1327 2.56389 12.28 2.69016ZM16.96 9.50016L12.5 5.04016V8.25016C12.5 8.94052 13.0596 9.50016 13.75 9.50016H16.96ZM8.21 13.0602H9.6C10.1523 13.0602 10.6 12.6124 10.6 12.0602V10.6502C10.6 10.0979 10.1523 9.65016 9.6 9.65016H8.21C7.65772 9.65016 7.21 10.0979 7.21 10.6502V12.0402C7.20463 12.3088 7.30761 12.5683 7.49573 12.7602C7.68385 12.9521 7.94128 13.0602 8.21 13.0602ZM8.69 11.1302H9.12V11.5602H8.69V11.1302ZM12.31 15.5902H7.88C7.46579 15.5902 7.13 15.2544 7.13 14.8402C7.13 14.4259 7.46579 14.0902 7.88 14.0902H12.31C12.7242 14.0902 13.06 14.4259 13.06 14.8402C13.06 15.2544 12.7242 15.5902 12.31 15.5902ZM13.75 16.6202H7.88C7.46579 16.6202 7.13 16.9559 7.13 17.3702C7.13 17.7844 7.46579 18.1202 7.88 18.1202H13.75C14.1642 18.1202 14.5 17.7844 14.5 17.3702C14.5 16.9559 14.1642 16.6202 13.75 16.6202Z" fill="black"/>
</g>
</svg>
